<svg xmlns="http://www.w3.org/2000/svg" viewBox="0 0 400 400" width="400" height="400">
<g transform="translate(24.001,24.000) scale(0.923468)">
<path fill="#003366" d="M190.625,0C85.504,0,0,85.505,0,190.625s85.504,190.545,190.625,190.546
	c105.121,0,190.545-85.426,190.545-190.546S295.746,0,190.625,0L190.625,0z M190.625,15.146c96.939,0,175.401,78.54,175.401,175.48
	c0,96.939-78.462,175.401-175.401,175.401s-175.48-78.462-175.48-175.401C15.145,93.686,93.686,15.146,190.625,15.146
	L190.625,15.146z"/>
<path fill="#FFFFFF" d="M190.625,15.146c96.939,0,175.401,78.54,175.401,175.48c0,96.939-78.462,175.401-175.401,175.401
	s-175.48-78.462-175.48-175.401C15.145,93.686,93.686,15.146,190.625,15.146L190.625,15.146z"/>
<path fill="#003366" d="M127.242,73.665C85.76,96.229,57.548,140.162,57.548,190.609c0,54.357,32.801,101.129,79.616,121.747
	l3.701-11.496c-42-18.972-71.269-61.17-71.269-110.25c0-42.91,22.315-80.647,55.992-102.139c0.007,0.001,0.072,0,0.079,0
	l60.953,53.708l4.016,3.544l3.938-3.544l60.874-53.708c33.699,21.478,56.069,59.193,56.069,102.139
	c0,49.081-29.156,91.279-71.111,110.25l3.701,11.496c46.793-20.617,79.537-67.39,79.537-121.747
	c0-50.448-28.235-94.379-69.693-116.944l-3.387,2.993l-6.221,5.512l-53.708,47.408l-53.708-47.486h-0.079l-6.142-5.434l-3.387-2.993
	C127.317,73.665,127.26,73.665,127.242,73.665L127.242,73.665z"/>
<path fill="#003366" d="M187.407,108.945c-43.585,1.662-78.514,37.679-78.514,81.664c0,45.041,36.623,81.743,81.664,81.743
	c28.828,0,54.263-15.003,68.828-37.643l-9.293-7.954c-12.226,20.039-34.309,33.391-59.535,33.391
	c-38.497,0-69.615-31.04-69.615-69.537c0-38.496,31.119-69.615,69.615-69.615c25.222,0,47.307,13.36,59.535,33.39l9.213-7.875
	c-14.568-22.595-39.936-37.563-68.748-37.563C189.501,108.945,188.453,108.905,187.407,108.945L187.407,108.945z"/>
<polygon fill-rule="evenodd" clip-rule="evenodd" fill="#003366" points="163.152,176.828 163.152,288.811 175.28,288.811 
	175.28,228.173 205.441,228.173 205.441,216.046 175.28,216.046 175.28,188.876 215.757,188.876 215.757,176.828 175.28,176.828 
	163.389,176.828 163.152,176.828 "/>
</g>
</svg>
