<svg xmlns="http://www.w3.org/2000/svg" viewBox="0 0 400 400" width="400" height="400">
<g transform="translate(44.9,24) scale(0.61)">
<defs
     id="defs14" />
  <g
     transform="translate(-883.88,74.2)"
     id="g18">
    <g
       transform="matrix(0.26,0,0,0.26,281.48,-34.56)"
       id="g37">
      <g
         id="g22"
         transform="translate(2309.06,-152.72)">
        <path
           style="fill:#040607;stroke-width:0.81"
           d="M 962.85,2220.46 C 844.55,2170.69 734.5,2106.24 632.41,2026.97 408.56,1853.12 232.64,1616.42 123.45,1342.14 26.91,1099.65 -13.78,835.21 4.5,569.01 12.53,452.13 32.61,334.26 63.57,222.32 c 2.72,-9.84 5.12,-18.72 5.34,-19.75 0.21,-1.02 0.62,-1.75 0.9,-1.62 0.28,0.13 6.91,3.41 14.73,7.28 143.61,55.99 255.76,81.14 401.96,71.43 131.16,-9.59 245.62,-42.78 337.34,-97.82 32.17,-19.31 58.31,-39.21 82.4,-62.74 35.85,-35.01 59.09,-70.19 72.4,-109.57 l 2.96,-8.76 1.84,5.92 C 1003.14,70.1 1058.07,132.4 1136.5,180.26 c 83.17,50.75 191.93,84.89 307.44,96.5 35.78,3.6 46.94,4.09 91.98,4.09 43.92,0 55.85,-0.5 88.6,-3.73 95.35,-9.41 184.04,-33.73 257.91,-70.72 5.93,-2.97 10.95,-5.14 11.14,-4.82 0.8,1.29 11.49,40.97 17.1,63.43 52.3,209.5 65.5,431.74 38.54,648.93 -14.34,115.53 -39.78,227.72 -76.72,338.3 -144.14,431.51 -451.32,780.33 -840.55,954.51 -16.84,7.54 -49.74,21.37 -50.64,21.3 -0.31,-0.03 -8.61,-3.43 -18.45,-7.57 z"
           id="path24" />
        <path
           style="fill:#ea202c;stroke-width:0.81"
           d="M 962.44,2159.5 C 697.39,2038.38 471.45,1839.44 308.71,1583.88 232.69,1464.5 171.29,1332.39 128.35,1195.84 83.44,1053.01 58.2,906.48 52.04,752.83 50.97,726.21 50.97,649.08 52.04,622.55 56.28,517.36 69.05,417.97 91.01,319.19 c 3.85,-17.31 11.86,-51.12 12.59,-53.11 0.23,-0.64 3.36,0.24 9.54,2.69 12.18,4.83 41.95,14.92 57.15,19.39 128.37,37.68 277.42,45.19 418.22,21.07 103.66,-17.76 200.23,-53.72 273.04,-101.68 27.12,-17.87 46.21,-33.31 67.6,-54.69 21.03,-21.03 34.99,-38.53 47.08,-59.08 l 5.26,-8.94 6.14,10.21 c 12.67,21.07 25.3,36.85 46.28,57.8 21.7,21.68 40.15,36.61 67.54,54.65 160.57,105.77 414.73,143.39 637.68,94.4 36.67,-8.06 80.87,-21.28 110.8,-33.14 6.18,-2.45 9.31,-3.33 9.54,-2.69 0.73,1.99 8.74,35.81 12.59,53.11 21.96,98.78 34.73,198.17 38.97,303.36 1.07,26.58 1.07,103.71 0,130.28 -10.82,268.39 -80.87,520.51 -208.3,749.76 -108.06,194.4 -255.93,364.77 -429.38,494.72 -75.45,56.53 -154.5,105 -236.55,145.05 -22.04,10.76 -54.26,25.59 -55.45,25.53 -0.35,-0.02 -8.87,-3.79 -18.93,-8.39 z"
           id="path28" />
        <path
           style="fill:#fefefe;stroke-width:0.81"
           d="m 969.75,1564.72 c -51.31,-2.11 -104.6,-12.81 -151.67,-30.46 -108.94,-40.84 -199.71,-117.23 -258.81,-217.82 -9.28,-15.79 -25.6,-49.21 -32.41,-66.36 -17.04,-42.89 -27.94,-87.59 -33.19,-136.05 -1.81,-16.68 -2.07,-76.08 -0.41,-93.07 8.27,-84.73 35.23,-161.55 81.01,-230.86 68.89,-104.28 174.82,-179.6 295.02,-209.77 41.88,-10.51 78.52,-14.93 123.22,-14.86 78.67,0.12 149.68,16.74 219.88,51.46 88.48,43.76 161.06,111.62 211.72,197.96 8.56,14.6 22.85,43.49 29.72,60.13 42.42,102.68 49.2,219.07 18.97,325.58 -37.65,132.62 -128.67,244.4 -251.06,308.31 -55.84,29.16 -117.73,47.6 -180.63,53.82 -12.16,1.2 -46.15,2.93 -53.07,2.7 -1.79,-0.06 -10.02,-0.39 -18.29,-0.73 z"
           id="path30" />
        <path
           style="fill:#263a54;stroke-width:0.81"
           d="M 950.65,2094.08 C 871.74,2053.99 804.65,2012.34 734.32,1959.77 672.19,1913.34 626.29,1873.41 568.15,1815.21 528.51,1775.54 505.82,1750.84 474.66,1713.44 311.52,1517.71 198.06,1285.41 142.77,1033.97 94.61,814.95 92.51,581.88 136.73,362.95 c 7.25,-35.92 6.6,-33.34 8.42,-33.24 0.87,0.05 7.43,1.81 14.58,3.91 56.8,16.68 122.53,28.34 188.18,33.36 57.23,4.38 124.5,3.63 182.08,-2.01 94.42,-9.26 182.3,-30.83 260.2,-63.86 19.84,-8.41 56.37,-26.77 73.19,-36.78 36.07,-21.46 64.83,-43.26 89.74,-68.02 9.43,-9.37 22.19,-23.59 26.79,-29.85 l 1.63,-2.21 4.97,6.28 c 16.19,20.43 40.9,43.76 67.03,63.28 39.68,29.63 92.99,58.05 147.56,78.65 70.29,26.54 149.12,44.39 231.98,52.51 57.53,5.64 126.21,6.4 182.08,2 67.85,-5.34 133.83,-17.12 190.92,-34.11 6.87,-2.04 12.68,-3.54 12.9,-3.31 0.61,0.61 2.19,7.7 6.65,29.74 42.13,208.36 43.23,424.07 3.25,632.82 -50.68,264.58 -166.88,511.81 -337.16,717.36 -50.88,61.42 -112.06,124.27 -172.45,177.16 -84.96,74.42 -181.78,141.39 -280.03,193.7 -15.34,8.17 -57.02,29.07 -57.91,29.05 -0.34,-0.01 -14.15,-6.9 -30.69,-15.3 z m -68.08,-540.68 c 0.33,0 4.81,0.89 9.96,1.98 53.29,11.25 118.37,12.77 174.32,4.09 7.13,-1.11 13.25,-2.01 13.61,-2.01 0.36,0 0.75,97.87 0.86,217.49 l 0.2,217.49 13.01,-8.02 c 59.34,-36.61 115.14,-76.75 170.09,-122.39 l 15.65,-12.99 v -187.96 -187.96 l 6.74,-4.9 c 34.66,-25.18 71.39,-60.84 98.37,-95.5 43.27,-55.59 75.26,-121.04 91.46,-187.14 0.88,-3.58 1.91,-7.6 2.29,-8.94 0.39,-1.38 0.87,99.27 1.1,231.09 l 0.41,233.53 11.87,-15.28 c 69.36,-89.22 130.11,-188.85 178.26,-292.31 l 8.62,-18.52 V 856.25 397.35 l -3.05,0.49 c -14.22,2.28 -58.24,6.23 -87.99,7.9 -19.36,1.09 -90.88,1.36 -101.41,0.39 l -6.71,-0.62 v 275.35 c 0,151.44 -0.16,275.19 -0.36,274.99 -0.2,-0.2 -2.04,-6.93 -4.1,-14.97 -4.67,-18.23 -14.81,-48.71 -21.91,-65.82 -34.91,-84.2 -92.82,-158.11 -166.49,-212.53 l -7.1,-5.25 V 517.75 378.22 l -11.99,-3.05 c -64.89,-16.49 -132.01,-41.75 -178.83,-67.3 l -8.33,-4.55 v 134.97 134.97 l -2.64,-0.53 c -7.37,-1.47 -32.02,-4.67 -45.32,-5.87 -18.3,-1.65 -60.62,-1.9 -78.44,-0.45 -22.25,1.81 -60.09,7.35 -70.92,10.38 l -1.83,0.51 V 440.34 303.35 l -9.14,4.94 c -47.95,25.88 -113.34,50.45 -178.02,66.89 l -11.99,3.05 v 146.85 146.85 l -10.77,8.97 c -95.64,79.69 -158.8,192.74 -175.68,314.45 -3.71,26.75 -4.17,34.72 -4.14,71.13 0.04,37.02 0.66,46.34 4.92,73.97 5.85,37.88 15.8,74.6 29.71,109.63 6.81,17.15 23.14,50.57 32.41,66.36 29.76,50.65 67.68,95.45 112.36,132.72 l 11.18,9.33 v 195.27 195.27 l 15.65,13 c 54.7,45.44 110.97,85.94 169.92,122.28 l 13.18,8.12 0.2,-219.52 c 0.11,-120.74 0.48,-219.52 0.81,-219.52 z m 82.71,-22.78 c -93.17,-5.8 -180.13,-37.72 -253.64,-93.11 -37.1,-27.96 -72.77,-64.61 -100.09,-102.85 -66.31,-92.83 -96.16,-208.35 -83.18,-321.9 15.64,-136.84 90.97,-259.52 206.46,-336.22 98.63,-65.51 218.57,-90.68 336.12,-70.55 61.32,10.5 122,34.51 175.17,69.31 110.9,72.58 186.01,189.15 205.97,319.65 4.01,26.2 4.9,38.94 4.91,69.91 0.01,31.11 -0.95,44.96 -4.9,70.72 -13.26,86.43 -50.58,167.09 -108.34,234.09 -72.94,84.62 -175.64,140.97 -285.82,156.82 -27.68,3.98 -66.94,5.73 -92.67,4.13 z m 49.99,-9.77 c 83.04,-4.62 160.72,-30.5 229.23,-76.36 97.58,-65.33 166.63,-165.7 192.12,-279.25 12.37,-55.11 14.36,-113.74 5.74,-169.48 -10.38,-67.15 -36.3,-132.55 -74.42,-187.77 C 1263.45,656.65 1083.29,582.66 903.87,617.4 785.11,640.4 678.14,712.2 610.86,814.09 c -34.16,51.72 -57.09,108.5 -68.22,168.84 -5.17,28.03 -7.23,51.54 -7.23,82.33 0,40.12 3.82,71.71 13.26,109.74 22.92,92.33 72.25,172.04 146.74,237.1 7.57,6.61 24.57,19.69 35.76,27.51 82.93,57.95 183.87,86.81 284.1,81.24 z m -46.74,-43.07 c -57.37,-3.54 -110.91,-17.81 -161.06,-42.93 -39.88,-19.97 -72.15,-43.08 -104.57,-74.87 -22.83,-22.39 -38.16,-40.8 -55.13,-66.21 -58.65,-87.82 -81.32,-193.89 -63.62,-297.61 19.11,-111.98 83.92,-211.59 178.72,-274.7 45.89,-30.55 95.91,-51.2 149.57,-61.76 55.26,-10.87 114.37,-10.04 169.39,2.39 4.64,1.05 8.76,2.23 9.15,2.62 0.39,0.39 0.62,14.21 0.5,30.74 -0.19,26.2 -0.37,29.99 -1.43,29.74 -0.67,-0.16 -6.81,-1.7 -13.64,-3.42 -28.39,-7.17 -52.4,-10.01 -84.71,-10.02 -24.96,-0.01 -38.15,0.98 -58.32,4.39 -97.42,16.45 -183.41,72.68 -237.89,155.56 -49.81,75.78 -68.46,167.89 -52.07,257.14 11.46,62.38 39.53,120.42 81.69,168.89 10.6,12.19 32.29,33.04 44.67,42.95 11.71,9.37 36.27,26.07 48.45,32.93 78.43,44.23 172.02,56.78 259.03,34.75 7.49,-1.9 13.8,-3.27 14.02,-3.05 0.22,0.22 0.4,13.88 0.4,30.36 v 29.96 l -1.84,0.7 c -3.17,1.21 -24.91,5.58 -36.4,7.31 -25.55,3.87 -61.11,5.6 -84.91,4.13 z m 217.64,-83.04 0.21,-34.28 8.88,-6.36 c 43.02,-30.82 77.54,-68.79 103.22,-113.52 23.07,-40.17 38.03,-84.6 43.95,-130.45 0.68,-5.28 1.24,-10.85 1.24,-12.4 v -2.8 h -30.48 -30.48 v 47.26 47.26 l -5.68,11.76 c -7.54,15.62 -12.4,24.11 -22.44,39.22 -9.02,13.57 -18.87,26.28 -27.42,35.36 l -5.36,5.69 -0.04,-279.02 c -0.02,-184.82 0.24,-279.02 0.77,-279.02 0.89,0 9.02,5.67 18.99,13.24 28.53,21.66 59.18,52.69 81.23,82.23 99.28,133.01 108.98,312.96 24.56,455.66 -32.39,54.76 -77.61,101.98 -131.02,136.85 -10.13,6.61 -28.73,17.59 -29.81,17.59 -0.29,0 -0.44,-15.43 -0.32,-34.28 z m 157.5,-361.95 c 0,-4.47 -2.27,-21.04 -4.51,-32.96 -6.05,-32.14 -16.76,-63.65 -31.61,-93 -6.92,-13.68 -19.52,-35.21 -23.19,-39.61 -1.59,-1.91 -1.6,-1.5 -1.62,83.23 l -0.03,85.15 h 30.48 30.48 z m -309.7,32.58 V 751.91 h 1.86 c 5.84,0 35.2,6.54 49.15,10.96 l 6.71,2.12 v 274.71 c 0,181.45 0.27,274.71 0.81,274.71 1.31,0 16.92,-7.15 24.39,-11.17 22.8,-12.28 43.63,-27.49 62.52,-45.66 3.76,-3.62 6.96,-6.57 7.11,-6.57 0.15,0 0.28,14.2 0.28,31.56 v 31.56 l -9.29,6.82 c -29.19,21.44 -63.03,38.08 -98.08,48.23 -12.11,3.51 -32.4,8 -41.18,9.12 l -4.27,0.55 z m -96.71,305.34 c -3.06,-0.57 -13.07,-4.69 -20.55,-8.45 -9.99,-5.02 -18.04,-10.77 -26.36,-18.82 -11.97,-11.58 -19.07,-23.2 -23.39,-38.27 l -2.06,-7.2 v -63.72 -63.72 h 26.42 26.42 v 57.55 57.55 l 2.07,4.16 c 4.55,9.13 15.76,13.89 27.55,11.69 6.47,-1.21 9.78,-3.6 12.47,-9.03 l 2.21,-4.47 0.24,-75.19 c 0.17,-53.35 -0.03,-76.25 -0.67,-78.85 -0.5,-2.01 -2.28,-6.58 -3.96,-10.16 -2.87,-6.12 -5.46,-9.11 -43.63,-50.45 -25.67,-27.8 -41.42,-45.49 -42.86,-48.15 -1.25,-2.31 -3.17,-6.83 -4.27,-10.05 l -1.99,-5.84 V 908.37 c 0,-114.82 -0.5,-106.27 7.05,-120.89 7.62,-14.75 19.47,-23.77 37.57,-28.61 15.85,-4.23 31.32,-4.37 45.61,-0.42 26.51,7.35 45.82,28.02 51.32,54.95 1.43,6.98 1.51,11.51 1.32,68.29 l -0.21,60.82 H 983.57 959.59 l -0.41,-48.4 c -0.45,-53.71 -0.08,-50.3 -5.95,-54.78 -8.93,-6.81 -24.36,-6.92 -31.98,-0.23 -5.4,4.74 -5.15,1.24 -5.15,73.17 v 65.32 l 2.04,6.01 c 3.81,11.21 6.61,14.69 42.71,53.21 18.86,20.12 35.39,38.04 36.74,39.83 1.35,1.79 3.68,5.88 5.19,9.09 5.52,11.77 5.23,4.32 4.98,131.73 -0.21,107 -0.33,115.57 -1.65,119.97 -6.01,20.03 -19.39,29.97 -44.47,33.03 -6.82,0.83 -20.5,0.97 -24.38,0.24 z m -106.51,-33 c -10.72,-6.4 -16.8,-10.47 -27.84,-18.64 l -8.74,-6.47 v -111.68 -111.68 h -35.36 c -33.14,0 -35.36,0.09 -35.36,1.42 0.01,3.35 3.49,24.94 5.4,33.53 7.13,32.03 21.81,65.65 40.48,92.67 2.32,3.35 4.48,6.55 4.82,7.11 0.48,0.81 -5.29,1.02 -27.79,1.02 h -28.39 l -8.16,-16.05 c -18.36,-36.14 -28.55,-70.01 -33.19,-110.35 -1.92,-16.72 -1.92,-49.94 0,-66.66 10.59,-91.96 57.25,-171.27 132.52,-225.22 8.48,-6.08 29.39,-19.05 30.7,-19.05 0.36,0 0.66,124.92 0.66,277.6 0,152.68 -0.27,277.58 -0.61,277.57 -0.34,-0.01 -4.45,-2.32 -9.15,-5.12 z m -36.61,-375.89 -0.03,-79.46 -3.27,3.66 c -31.92,35.73 -54.57,81.29 -63.63,128.03 -1.26,6.49 -3.75,23.78 -3.75,26.04 0,1.03 4.84,1.19 35.36,1.19 h 35.36 l -0.03,-79.46 z m 311.36,102.16 v -45.58 l 16.05,0.26 c 14.29,0.24 16.46,0.45 19.77,1.98 7.35,3.4 12.69,11.13 15.97,23.07 2.1,7.68 2.08,35.48 -0.04,43.02 -3.21,11.44 -9.53,19.74 -16.64,21.87 -1.98,0.59 -9.27,0.96 -19.15,0.96 h -15.96 z m 32.12,21.87 c 3.91,-4.26 5.27,-9.7 5.26,-20.94 -0.02,-18.86 -3.99,-25.34 -15.88,-25.94 l -6.06,-0.31 v 25.37 25.37 l 6.97,-0.29 c 6.84,-0.28 7.02,-0.34 9.7,-3.27 z m 28.03,-21.81 v -45.52 h 20.35 20.35 l -0.23,9.96 -0.23,9.96 -12.4,0.22 -12.4,0.22 v 6.87 6.87 l 11.58,0.23 11.58,0.23 0.23,9.55 0.23,9.55 h -11.81 -11.81 v 8.51 8.51 l 12.8,0.22 12.8,0.22 0.23,9.96 0.23,9.96 h -20.75 -20.75 z M 482.85,1023.33 V 405.48 l -6.3,0.62 c -9.83,0.98 -82.37,0.71 -101.81,-0.37 -30.89,-1.72 -76.86,-5.85 -88.4,-7.94 l -2.64,-0.48 v 458.89 458.89 l 6.26,13.68 c 7.84,17.15 32.79,67.14 42.12,84.4 41.22,76.29 86.45,145.71 139.67,214.39 5.8,7.49 10.67,13.62 10.82,13.62 0.15,0 0.27,-278.03 0.27,-617.85 z m 181.98,1028.55 c -1.01,-1.29 -0.98,-1.32 0.31,-0.31 0.78,0.61 1.42,1.25 1.42,1.42 0,0.67 -0.67,0.24 -1.73,-1.12 z m 631.7,1.12 c 0,-0.17 0.64,-0.81 1.42,-1.42 1.29,-1.01 1.32,-0.98 0.31,0.31 -1.06,1.35 -1.73,1.78 -1.73,1.12 z m -657.72,-20.62 c -1.01,-1.29 -0.98,-1.32 0.31,-0.31 1.35,1.06 1.78,1.73 1.12,1.73 -0.17,0 -0.81,-0.64 -1.42,-1.42 z m 683.73,1.12 c 0,-0.17 0.64,-0.81 1.42,-1.42 1.29,-1.01 1.32,-0.98 0.31,0.31 -1.06,1.35 -1.73,1.78 -1.73,1.12 z m -691.04,-6.81 c -1.01,-1.29 -0.98,-1.32 0.31,-0.31 1.35,1.06 1.78,1.73 1.12,1.73 -0.17,0 -0.81,-0.64 -1.42,-1.42 z m 698.36,1.12 c 0,-0.17 0.64,-0.81 1.42,-1.42 1.29,-1.01 1.32,-0.98 0.31,0.31 -1.06,1.35 -1.73,1.78 -1.73,1.12 z m -705.68,-6.81 c -1.01,-1.29 -0.98,-1.32 0.31,-0.31 0.78,0.61 1.42,1.25 1.42,1.42 0,0.67 -0.67,0.24 -1.73,-1.12 z m 712.99,1.12 c 0,-0.17 0.64,-0.81 1.42,-1.42 1.29,-1.01 1.32,-0.98 0.31,0.31 -1.06,1.35 -1.73,1.78 -1.73,1.12 z m 4.06,-3.25 c 0,-0.17 0.64,-0.81 1.42,-1.42 1.29,-1.01 1.32,-0.98 0.31,0.31 -1.06,1.35 -1.73,1.78 -1.73,1.12 z m -733.31,-10.87 c -1.01,-1.29 -0.98,-1.32 0.31,-0.31 0.78,0.61 1.42,1.25 1.42,1.42 0,0.67 -0.67,0.24 -1.73,-1.12 z m 745.51,1.12 c 0,-0.17 0.64,-0.81 1.42,-1.42 1.29,-1.01 1.32,-0.98 0.31,0.31 -1.06,1.35 -1.73,1.78 -1.73,1.12 z m -749.57,-4.37 c -1.01,-1.29 -0.98,-1.32 0.31,-0.31 0.78,0.61 1.42,1.25 1.42,1.42 0,0.67 -0.67,0.24 -1.73,-1.12 z m 753.63,1.12 c 0,-0.17 0.64,-0.81 1.42,-1.42 1.29,-1.01 1.32,-0.98 0.31,0.31 -1.06,1.35 -1.73,1.78 -1.73,1.12 z m -757.7,-4.37 c -1.01,-1.29 -0.98,-1.32 0.31,-0.31 0.78,0.61 1.42,1.25 1.42,1.42 0,0.67 -0.67,0.24 -1.73,-1.12 z m 761.76,1.12 c 0,-0.17 0.64,-0.81 1.42,-1.42 1.29,-1.01 1.32,-0.98 0.31,0.31 -1.06,1.35 -1.73,1.78 -1.73,1.12 z m -766.64,-5.18 c -1.01,-1.29 -0.98,-1.32 0.31,-0.31 0.78,0.61 1.42,1.25 1.42,1.42 0,0.67 -0.67,0.24 -1.73,-1.12 z m 771.52,1.12 c 0,-0.17 0.64,-0.81 1.42,-1.42 1.29,-1.01 1.32,-0.98 0.31,0.31 -1.06,1.35 -1.73,1.78 -1.73,1.12 z m -776.4,-5.18 c -1.01,-1.29 -0.98,-1.32 0.31,-0.31 1.35,1.06 1.78,1.73 1.12,1.73 -0.17,0 -0.81,-0.64 -1.42,-1.42 z m 781.27,1.12 c 0,-0.17 0.64,-0.81 1.42,-1.42 1.29,-1.01 1.32,-0.98 0.31,0.31 -1.06,1.35 -1.73,1.78 -1.73,1.12 z m -786.15,-5.18 c -1.01,-1.29 -0.98,-1.32 0.31,-0.31 0.78,0.61 1.42,1.25 1.42,1.42 0,0.67 -0.67,0.24 -1.73,-1.12 z m 791.03,1.12 c 0,-0.17 0.64,-0.81 1.42,-1.42 1.29,-1.01 1.32,-0.98 0.31,0.31 -1.06,1.35 -1.73,1.78 -1.73,1.12 z m -796.28,-5.59 -1.55,-1.83 1.83,1.55 c 1.72,1.46 2.2,2.11 1.55,2.11 -0.15,0 -0.98,-0.82 -1.83,-1.83 z m 802.38,0.2 c 0.81,-0.89 1.65,-1.63 1.88,-1.63 0.22,0 -0.26,0.73 -1.06,1.63 -0.81,0.89 -1.65,1.63 -1.88,1.63 -0.22,0 0.26,-0.73 1.06,-1.63 z m -808.07,-5.08 -1.55,-1.83 1.83,1.55 c 1.72,1.46 2.2,2.11 1.55,2.11 -0.15,0 -0.98,-0.82 -1.83,-1.83 z m 813.76,0.2 c 0.81,-0.89 1.65,-1.63 1.88,-1.63 0.22,0 -0.26,0.73 -1.06,1.63 -0.81,0.89 -1.65,1.63 -1.88,1.63 -0.22,0 0.26,-0.73 1.06,-1.63 z m -819.45,-5.08 -1.55,-1.83 1.83,1.55 c 1.72,1.46 2.2,2.11 1.55,2.11 -0.15,0 -0.98,-0.82 -1.83,-1.83 z m 825.14,0.2 c 0.81,-0.89 1.65,-1.63 1.88,-1.63 0.22,0 -0.26,0.73 -1.06,1.63 -0.81,0.89 -1.65,1.63 -1.88,1.63 -0.22,0 0.26,-0.73 1.06,-1.63 z m -831.64,-5.89 -1.55,-1.83 1.83,1.55 c 1.72,1.46 2.2,2.11 1.55,2.11 -0.15,0 -0.98,-0.82 -1.83,-1.83 z m 838.15,0.2 c 0.81,-0.89 1.65,-1.63 1.88,-1.63 0.22,0 -0.26,0.73 -1.06,1.63 -0.81,0.89 -1.65,1.63 -1.88,1.63 -0.22,0 0.26,-0.73 1.06,-1.63 z m -845.04,-6.3 -1.97,-2.24 2.24,1.97 c 1.23,1.08 2.24,2.09 2.24,2.24 0,0.64 -0.66,0.12 -2.5,-1.97 z m 851.95,0.2 c 1.05,-1.12 2.09,-2.03 2.32,-2.03 0.22,0 -0.45,0.91 -1.5,2.03 -1.05,1.12 -2.09,2.03 -2.32,2.03 -0.22,0 0.45,-0.91 1.5,-2.03 z m -859.27,-6.71 -1.97,-2.24 2.24,1.97 c 1.23,1.08 2.24,2.09 2.24,2.24 0,0.64 -0.66,0.12 -2.5,-1.97 z m 866.58,0.2 c 1.05,-1.12 2.09,-2.03 2.32,-2.03 0.22,0 -0.45,0.91 -1.5,2.03 -1.05,1.12 -2.09,2.03 -2.32,2.03 -0.22,0 0.45,-0.91 1.5,-2.03 z m -875.11,-7.93 -2.39,-2.64 2.64,2.39 c 1.45,1.31 2.64,2.5 2.64,2.64 0,0.63 -0.67,0.07 -2.9,-2.39 z m 881.61,2.39 c 0,-0.14 1.19,-1.33 2.64,-2.64 l 2.64,-2.39 -2.39,2.64 c -2.23,2.46 -2.9,3.02 -2.9,2.39 z m -891.76,-11.74 -2.8,-3.05 3.05,2.8 c 1.68,1.54 3.05,2.91 3.05,3.05 0,0.62 -0.69,0.04 -3.3,-2.8 z m 904.36,-0.2 c 1.75,-1.79 3.36,-3.25 3.58,-3.25 0.22,0 -1.02,1.46 -2.77,3.25 -1.75,1.79 -3.36,3.25 -3.58,3.25 -0.22,0 1.02,-1.46 2.77,-3.25 z m -918.16,-12.8 -4.44,-4.67 4.67,4.44 c 2.57,2.44 4.67,4.55 4.67,4.67 0,0.6 -0.78,-0.1 -4.9,-4.44 z m 931.58,0.2 c 2.43,-2.46 4.6,-4.47 4.82,-4.47 0.22,0 -1.58,2.01 -4.01,4.47 -2.43,2.46 -4.6,4.47 -4.82,4.47 -0.22,0 1.58,-2.01 4.01,-4.47 z m -843.05,1.42 c -1.01,-1.29 -0.98,-1.32 0.31,-0.31 0.78,0.61 1.42,1.25 1.42,1.42 0,0.67 -0.67,0.24 -1.73,-1.12 z m 753.63,1.12 c 0,-0.17 0.64,-0.81 1.42,-1.42 1.29,-1.01 1.32,-0.98 0.31,0.31 -1.06,1.35 -1.73,1.78 -1.73,1.12 z m -760.14,-6.81 c -1.01,-1.29 -0.98,-1.32 0.31,-0.31 1.35,1.06 1.78,1.73 1.12,1.73 -0.17,0 -0.81,-0.64 -1.42,-1.42 z m 766.64,1.12 c 0,-0.17 0.64,-0.81 1.42,-1.42 1.29,-1.01 1.32,-0.98 0.31,0.31 -1.06,1.35 -1.73,1.78 -1.73,1.12 z m -781.27,-14.12 c -1.01,-1.29 -0.98,-1.32 0.31,-0.31 1.35,1.06 1.78,1.73 1.12,1.73 -0.17,0 -0.81,-0.64 -1.42,-1.42 z m 795.9,1.12 c 0,-0.17 0.64,-0.81 1.42,-1.42 1.29,-1.01 1.32,-0.98 0.31,0.31 -1.06,1.35 -1.73,1.78 -1.73,1.12 z m -891.73,-11.68 -10.96,-11.18 11.18,10.96 c 10.38,10.18 11.55,11.39 10.96,11.39 -0.12,0 -5.15,-5.03 -11.18,-11.18 z m 988.45,0.41 c 6.03,-6.15 11.06,-11.18 11.18,-11.18 0.58,0 -0.58,1.21 -10.96,11.39 l -11.18,10.96 z m -901.95,1.63 -1.55,-1.83 1.83,1.55 c 1.72,1.46 2.2,2.11 1.55,2.11 -0.15,0 -0.98,-0.82 -1.83,-1.83 z m 815.39,0.2 c 0.81,-0.89 1.65,-1.63 1.88,-1.63 0.22,0 -0.26,0.73 -1.06,1.63 -0.81,0.89 -1.65,1.63 -1.88,1.63 -0.22,0 0.26,-0.73 1.06,-1.63 z m -825.95,-9.96 -1.55,-1.83 1.83,1.55 c 1.72,1.46 2.2,2.11 1.55,2.11 -0.15,0 -0.98,-0.82 -1.83,-1.83 z m 837.33,-0.61 c 0.81,-0.89 1.65,-1.63 1.88,-1.63 0.22,0 -0.26,0.73 -1.06,1.63 -0.81,0.89 -1.65,1.63 -1.88,1.63 -0.22,0 0.26,-0.73 1.06,-1.63 z m -853.57,-14.83 -2.39,-2.64 2.64,2.39 c 1.45,1.31 2.64,2.5 2.64,2.64 0,0.63 -0.67,0.07 -2.9,-2.39 z m 869.42,-0.2 c 1.52,-1.56 2.94,-2.85 3.16,-2.85 0.22,0 -0.83,1.28 -2.35,2.85 -1.52,1.56 -2.94,2.85 -3.16,2.85 -0.22,0 0.83,-1.28 2.35,-2.85 z m -956.78,-5.08 -4.44,-4.67 4.67,4.44 c 2.57,2.44 4.67,4.55 4.67,4.67 0,0.6 -0.78,-0.1 -4.9,-4.44 z m 1043.35,0.61 c 2.2,-2.24 4.19,-4.06 4.41,-4.06 0.22,0 -1.4,1.83 -3.6,4.06 -2.2,2.24 -4.19,4.06 -4.41,4.06 -0.22,0 1.4,-1.83 3.6,-4.06 z m 13.01,-13.82 c 1.75,-1.79 3.36,-3.25 3.58,-3.25 0.22,0 -1.02,1.46 -2.77,3.25 -1.75,1.79 -3.36,3.25 -3.58,3.25 -0.22,0 1.02,-1.46 2.77,-3.25 z m -1069.37,-0.61 -2.8,-3.05 3.05,2.8 c 1.68,1.54 3.05,2.91 3.05,3.05 0,0.62 -0.69,0.04 -3.3,-2.8 z m -9.36,-10.16 -2.39,-2.64 2.64,2.39 c 2.46,2.23 3.02,2.9 2.39,2.9 -0.14,0 -1.33,-1.19 -2.64,-2.64 z m 1086.45,2.39 c 0,-0.14 1.19,-1.33 2.64,-2.64 l 2.64,-2.39 -2.39,2.64 c -2.23,2.46 -2.9,3.02 -2.9,2.39 z m -1094.19,-10.92 -1.97,-2.24 2.24,1.97 c 1.23,1.08 2.24,2.09 2.24,2.24 0,0.64 -0.66,0.12 -2.5,-1.97 z m 1103.94,0.2 c 1.05,-1.12 2.09,-2.03 2.32,-2.03 0.22,0 -0.45,0.91 -1.5,2.03 -1.05,1.12 -2.09,2.03 -2.32,2.03 -0.22,0 0.45,-0.91 1.5,-2.03 z m -75.6,-4.06 c 1.52,-1.56 2.94,-2.85 3.16,-2.85 0.22,0 -0.83,1.28 -2.35,2.85 -1.52,1.56 -2.94,2.85 -3.16,2.85 -0.22,0 0.83,-1.28 2.35,-2.85 z m -953.14,-0.61 -2.39,-2.64 2.64,2.39 c 1.45,1.31 2.64,2.5 2.64,2.64 0,0.63 -0.67,0.07 -2.9,-2.39 z m -81.7,-2.85 -1.97,-2.24 2.24,1.97 c 1.23,1.08 2.24,2.09 2.24,2.24 0,0.64 -0.66,0.12 -2.5,-1.97 z m 1116.95,0.2 c 1.05,-1.12 2.09,-2.03 2.32,-2.03 0.22,0 -0.45,0.91 -1.5,2.03 -1.05,1.12 -2.09,2.03 -2.32,2.03 -0.22,0 0.45,-0.91 1.5,-2.03 z m -1123.45,-7.52 -1.97,-2.24 2.24,1.97 c 1.23,1.08 2.24,2.09 2.24,2.24 0,0.64 -0.66,0.12 -2.5,-1.97 z m 1129.55,0.61 c 0.81,-0.89 1.65,-1.63 1.88,-1.63 0.22,0 -0.26,0.73 -1.06,1.63 -0.81,0.89 -1.65,1.63 -1.88,1.63 -0.22,0 0.26,-0.73 1.06,-1.63 z m -72.75,-6.1 c 1.05,-1.12 2.09,-2.03 2.32,-2.03 0.22,0 -0.45,0.91 -1.5,2.03 -1.05,1.12 -2.09,2.03 -2.32,2.03 -0.22,0 0.45,-0.91 1.5,-2.03 z m -1062.09,-0.61 -1.55,-1.83 1.83,1.55 c 1.72,1.46 2.2,2.11 1.55,2.11 -0.15,0 -0.98,-0.82 -1.83,-1.83 z m 78.04,0 -1.55,-1.83 1.83,1.55 c 1.72,1.46 2.2,2.11 1.55,2.11 -0.15,0 -0.98,-0.82 -1.83,-1.83 z m 1062.5,0.2 c 0.81,-0.89 1.65,-1.63 1.88,-1.63 0.22,0 -0.26,0.73 -1.06,1.63 -0.81,0.89 -1.65,1.63 -1.88,1.63 -0.22,0 0.26,-0.73 1.06,-1.63 z m -1145.84,-6.3 c -1.01,-1.29 -0.98,-1.32 0.31,-0.31 0.78,0.61 1.42,1.25 1.42,1.42 0,0.67 -0.67,0.24 -1.73,-1.12 z m 1150.32,1.12 c 0,-0.17 0.64,-0.81 1.42,-1.42 1.29,-1.01 1.32,-0.98 0.31,0.31 -1.06,1.35 -1.73,1.78 -1.73,1.12 z m -72.75,-5.38 c 0.81,-0.89 1.65,-1.63 1.88,-1.63 0.22,0 -0.26,0.73 -1.06,1.63 -0.81,0.89 -1.65,1.63 -1.88,1.63 -0.22,0 0.26,-0.73 1.06,-1.63 z m -1004.41,-0.61 c -1.01,-1.29 -0.98,-1.32 0.31,-0.31 0.78,0.61 1.42,1.25 1.42,1.42 0,0.67 -0.67,0.24 -1.73,-1.12 z m -78.04,-0.81 c -1.01,-1.29 -0.98,-1.32 0.31,-0.31 0.78,0.61 1.42,1.25 1.42,1.42 0,0.67 -0.67,0.24 -1.73,-1.12 z m 1160.07,1.12 c 0,-0.17 0.64,-0.81 1.42,-1.42 1.29,-1.01 1.32,-0.98 0.31,0.31 -1.06,1.35 -1.73,1.78 -1.73,1.12 z m -1164.51,-6.4 -1.55,-1.83 1.83,1.55 c 1.72,1.46 2.2,2.11 1.55,2.11 -0.15,0 -0.98,-0.82 -1.83,-1.83 z m 1169.8,0.2 c 0.81,-0.89 1.65,-1.63 1.88,-1.63 0.22,0 -0.26,0.73 -1.06,1.63 -0.81,0.89 -1.65,1.63 -1.88,1.63 -0.22,0 0.26,-0.73 1.06,-1.63 z m -1095.45,-3.05 c -1.01,-1.29 -0.98,-1.32 0.31,-0.31 0.78,0.61 1.42,1.25 1.42,1.42 0,0.67 -0.67,0.24 -1.73,-1.12 z m 1020.26,1.12 c 0,-0.17 0.64,-0.81 1.42,-1.42 1.29,-1.01 1.32,-0.98 0.31,0.31 -1.06,1.35 -1.73,1.78 -1.73,1.12 z m -1099.1,-3.55 c -1.01,-1.29 -0.98,-1.32 0.31,-0.31 0.78,0.61 1.42,1.25 1.42,1.42 0,0.67 -0.67,0.24 -1.73,-1.12 z m 1177.95,1.12 c 0,-0.17 0.64,-0.81 1.42,-1.42 1.29,-1.01 1.32,-0.98 0.31,0.31 -1.06,1.35 -1.73,1.78 -1.73,1.12 z m -1182.02,-5.99 c -1.01,-1.29 -0.98,-1.32 0.31,-0.31 0.78,0.61 1.42,1.25 1.42,1.42 0,0.67 -0.67,0.24 -1.73,-1.12 z m 1186.08,1.12 c 0,-0.17 0.64,-0.81 1.42,-1.42 1.29,-1.01 1.32,-0.98 0.31,0.31 -1.06,1.35 -1.73,1.78 -1.73,1.12 z m 4.47,-5.38 c 0.81,-0.89 1.65,-1.63 1.88,-1.63 0.22,0 -0.26,0.73 -1.06,1.63 -0.81,0.89 -1.65,1.63 -1.88,1.63 -0.22,0 0.26,-0.73 1.06,-1.63 z m -1194.62,-0.61 c -1.01,-1.29 -0.98,-1.32 0.31,-0.31 0.78,0.61 1.42,1.25 1.42,1.42 0,0.67 -0.67,0.24 -1.73,-1.12 z m -3.25,-4.06 c -1.01,-1.29 -0.98,-1.32 0.31,-0.31 0.78,0.61 1.42,1.25 1.42,1.42 0,0.67 -0.67,0.24 -1.73,-1.12 z m 1200.71,1.12 c 0,-0.17 0.64,-0.81 1.42,-1.42 1.29,-1.01 1.32,-0.98 0.31,0.31 -1.06,1.35 -1.73,1.78 -1.73,1.12 z m -1204.78,-5.99 c -1.01,-1.29 -0.98,-1.32 0.31,-0.31 1.35,1.06 1.78,1.73 1.12,1.73 -0.17,0 -0.81,-0.64 -1.42,-1.42 z m -3.25,-4.06 c -1.01,-1.29 -0.98,-1.32 0.31,-0.31 0.78,0.61 1.42,1.25 1.42,1.42 0,0.67 -0.67,0.24 -1.73,-1.12 z m 1215.35,1.12 c 0,-0.17 0.64,-0.81 1.42,-1.42 1.29,-1.01 1.32,-0.98 0.31,0.31 -1.06,1.35 -1.73,1.78 -1.73,1.12 z m -1218.6,-5.18 c -1.01,-1.29 -0.98,-1.32 0.31,-0.31 0.78,0.61 1.42,1.25 1.42,1.42 0,0.67 -0.67,0.24 -1.73,-1.12 z m 1221.85,1.12 c 0,-0.17 0.64,-0.81 1.42,-1.42 1.29,-1.01 1.32,-0.98 0.31,0.31 -1.06,1.35 -1.73,1.78 -1.73,1.12 z m -1225.1,-5.18 c -1.01,-1.29 -0.98,-1.32 0.31,-0.31 0.78,0.61 1.42,1.25 1.42,1.42 0,0.67 -0.67,0.24 -1.73,-1.12 z m 1228.35,1.12 c 0,-0.17 0.64,-0.81 1.42,-1.42 1.29,-1.01 1.32,-0.98 0.31,0.31 -1.06,1.35 -1.73,1.78 -1.73,1.12 z M 357.56,1752.75 c -1.01,-1.29 -0.98,-1.32 0.31,-0.31 0.78,0.61 1.42,1.25 1.42,1.42 0,0.67 -0.67,0.24 -1.73,-1.12 z m 1246.23,1.12 c 0,-0.17 0.64,-0.81 1.42,-1.42 1.29,-1.01 1.32,-0.98 0.31,0.31 -1.06,1.35 -1.73,1.78 -1.73,1.12 z m -1251.92,-8.43 c -1.01,-1.29 -0.98,-1.32 0.31,-0.31 1.35,1.06 1.78,1.73 1.12,1.73 -0.17,0 -0.81,-0.64 -1.42,-1.42 z m 1257.61,1.12 c 0,-0.17 0.64,-0.81 1.42,-1.42 1.29,-1.01 1.32,-0.98 0.31,0.31 -1.06,1.35 -1.73,1.78 -1.73,1.12 z M 341.3,1731.62 c -1.01,-1.29 -0.98,-1.32 0.31,-0.31 0.78,0.61 1.42,1.25 1.42,1.42 0,0.67 -0.67,0.24 -1.73,-1.12 z m -2.44,-3.25 c -1.01,-1.29 -0.98,-1.32 0.31,-0.31 0.78,0.61 1.42,1.25 1.42,1.42 0,0.67 -0.67,0.24 -1.73,-1.12 z m 1283.63,1.12 c 0,-0.17 0.64,-0.81 1.42,-1.42 1.29,-1.01 1.32,-0.98 0.31,0.31 -1.06,1.35 -1.73,1.78 -1.73,1.12 z m -1286.06,-4.37 c -1.01,-1.29 -0.98,-1.32 0.31,-0.31 0.78,0.61 1.42,1.25 1.42,1.42 0,0.67 -0.67,0.24 -1.73,-1.12 z m -11.38,-15.44 c -1.01,-1.29 -0.98,-1.32 0.31,-0.31 0.78,0.61 1.42,1.25 1.42,1.42 0,0.67 -0.67,0.24 -1.73,-1.12 z m 1311.26,1.12 c 0,-0.17 0.64,-0.81 1.42,-1.42 1.29,-1.01 1.32,-0.98 0.31,0.31 -1.06,1.35 -1.73,1.78 -1.73,1.12 z M 48.84,1109.09 c 0.04,-0.95 0.23,-1.14 0.49,-0.49 0.23,0.59 0.21,1.29 -0.06,1.56 -0.27,0.27 -0.46,-0.21 -0.43,-1.07 z m -5.69,-24.39 c 0.04,-0.95 0.23,-1.14 0.49,-0.49 0.23,0.59 0.21,1.29 -0.06,1.56 -0.27,0.27 -0.46,-0.21 -0.43,-1.07 z m 1876.1,0 c 0.04,-0.95 0.23,-1.14 0.49,-0.49 0.23,0.59 0.21,1.29 -0.06,1.56 -0.27,0.27 -0.46,-0.21 -0.43,-1.07 z M 41.52,1077.39 c 0.04,-0.95 0.23,-1.14 0.49,-0.49 0.23,0.59 0.21,1.29 -0.06,1.56 -0.27,0.27 -0.46,-0.21 -0.43,-1.07 z m 1879.36,0 c 0.04,-0.95 0.23,-1.14 0.49,-0.49 0.23,0.59 0.21,1.29 -0.06,1.56 -0.27,0.27 -0.46,-0.21 -0.43,-1.07 z M 39.89,1070.08 c 0.04,-0.95 0.23,-1.14 0.49,-0.49 0.23,0.59 0.21,1.29 -0.06,1.56 -0.27,0.27 -0.46,-0.21 -0.43,-1.07 z m 1882.61,0 c 0.04,-0.95 0.23,-1.14 0.49,-0.49 0.23,0.59 0.21,1.29 -0.06,1.56 -0.27,0.27 -0.46,-0.21 -0.43,-1.07 z M 37.46,1058.7 c 0.04,-0.95 0.23,-1.14 0.49,-0.49 0.23,0.59 0.21,1.29 -0.06,1.56 -0.27,0.27 -0.46,-0.21 -0.43,-1.07 z m 1887.49,0 c 0.04,-0.95 0.23,-1.14 0.49,-0.49 0.23,0.59 0.21,1.29 -0.06,1.56 -0.27,0.27 -0.46,-0.21 -0.43,-1.07 z M 36.64,1054.63 c 0.04,-0.95 0.23,-1.14 0.49,-0.49 0.23,0.59 0.21,1.29 -0.06,1.56 -0.27,0.27 -0.46,-0.21 -0.43,-1.07 z m 1889.11,0 c 0.04,-0.95 0.23,-1.14 0.49,-0.49 0.23,0.59 0.21,1.29 -0.06,1.56 -0.27,0.27 -0.46,-0.21 -0.43,-1.07 z M 31.77,1030.25 c 0.04,-0.95 0.23,-1.14 0.49,-0.49 0.23,0.59 0.21,1.29 -0.06,1.56 -0.27,0.27 -0.46,-0.21 -0.43,-1.07 z m 1898.87,0 c 0.04,-0.95 0.23,-1.14 0.49,-0.49 0.23,0.59 0.21,1.29 -0.06,1.56 -0.27,0.27 -0.46,-0.21 -0.43,-1.07 z M 30.95,1026.18 c 0.04,-0.95 0.23,-1.14 0.49,-0.49 0.23,0.59 0.21,1.29 -0.06,1.56 -0.27,0.27 -0.46,-0.21 -0.43,-1.07 z m 1900.49,0 c 0.04,-0.95 0.23,-1.14 0.49,-0.49 0.23,0.59 0.21,1.29 -0.06,1.56 -0.27,0.27 -0.46,-0.21 -0.43,-1.07 z M 30.14,1022.12 c 0.04,-0.95 0.23,-1.14 0.49,-0.49 0.23,0.59 0.21,1.29 -0.06,1.56 -0.27,0.27 -0.46,-0.21 -0.43,-1.07 z m 1902.12,0 c 0.04,-0.95 0.23,-1.14 0.49,-0.49 0.23,0.59 0.21,1.29 -0.06,1.56 -0.27,0.27 -0.46,-0.21 -0.43,-1.07 z m 0.81,-4.88 c 0.04,-0.95 0.23,-1.14 0.49,-0.49 0.23,0.59 0.21,1.29 -0.06,1.56 -0.27,0.27 -0.46,-0.21 -0.43,-1.07 z M 28.51,1013.18 c 0.04,-0.95 0.23,-1.14 0.49,-0.49 0.23,0.59 0.21,1.29 -0.06,1.56 -0.27,0.27 -0.46,-0.21 -0.43,-1.07 z m 1905.37,0 c 0.04,-0.95 0.23,-1.14 0.49,-0.49 0.23,0.59 0.21,1.29 -0.06,1.56 -0.27,0.27 -0.46,-0.21 -0.43,-1.07 z M 26.89,1004.23 c 0.04,-0.95 0.23,-1.14 0.49,-0.49 0.23,0.59 0.21,1.29 -0.06,1.56 -0.27,0.27 -0.46,-0.21 -0.43,-1.07 z m 1908.62,0 c 0.04,-0.95 0.23,-1.14 0.49,-0.49 0.23,0.59 0.21,1.29 -0.06,1.56 -0.27,0.27 -0.46,-0.21 -0.43,-1.07 z M 26.08,999.36 c 0.04,-0.95 0.23,-1.14 0.49,-0.49 0.23,0.59 0.21,1.29 -0.06,1.56 -0.27,0.27 -0.46,-0.21 -0.43,-1.07 z m 1910.25,0 c 0.04,-0.95 0.23,-1.14 0.49,-0.49 0.23,0.59 0.21,1.29 -0.06,1.56 -0.27,0.27 -0.46,-0.21 -0.43,-1.07 z M 25.26,994.48 c 0.04,-0.95 0.23,-1.14 0.49,-0.49 0.23,0.59 0.21,1.29 -0.06,1.56 -0.27,0.27 -0.46,-0.21 -0.43,-1.07 z m 1911.87,0 c 0.04,-0.95 0.23,-1.14 0.49,-0.49 0.23,0.59 0.21,1.29 -0.06,1.56 -0.27,0.27 -0.46,-0.21 -0.43,-1.07 z m 0.81,-4.88 c 0.04,-0.95 0.23,-1.14 0.49,-0.49 0.23,0.59 0.21,1.29 -0.06,1.56 -0.27,0.27 -0.46,-0.21 -0.43,-1.07 z M 23.64,985.54 c 0.04,-0.95 0.23,-1.14 0.49,-0.49 0.23,0.59 0.21,1.29 -0.06,1.56 -0.27,0.27 -0.46,-0.21 -0.43,-1.07 z M 1938.76,984.72 c 0.04,-0.95 0.23,-1.14 0.49,-0.49 0.23,0.59 0.21,1.29 -0.06,1.56 -0.27,0.27 -0.46,-0.21 -0.43,-1.07 z M 22.82,979.85 c 0.04,-0.95 0.23,-1.14 0.49,-0.49 0.23,0.59 0.21,1.29 -0.06,1.56 -0.27,0.27 -0.46,-0.21 -0.43,-1.07 z m 1916.75,0 c 0.04,-0.95 0.23,-1.14 0.49,-0.49 0.23,0.59 0.21,1.29 -0.06,1.56 -0.27,0.27 -0.46,-0.21 -0.43,-1.07 z M 22.01,974.97 c 0.04,-0.95 0.23,-1.14 0.49,-0.49 0.23,0.59 0.21,1.29 -0.06,1.56 -0.27,0.27 -0.46,-0.21 -0.43,-1.07 z m 1918.37,0 c 0.04,-0.95 0.23,-1.14 0.49,-0.49 0.23,0.59 0.21,1.29 -0.06,1.56 -0.27,0.27 -0.46,-0.21 -0.43,-1.07 z M 21.2,970.09 c 0.04,-0.95 0.23,-1.14 0.49,-0.49 0.23,0.59 0.21,1.29 -0.06,1.56 -0.27,0.27 -0.46,-0.21 -0.43,-1.07 z m 1920,0 c 0.04,-0.95 0.23,-1.14 0.49,-0.49 0.23,0.59 0.21,1.29 -0.06,1.56 -0.27,0.27 -0.46,-0.21 -0.43,-1.07 z M 20.45,964.88 c 0,-1.12 0.18,-1.57 0.41,-1.02 0.23,0.56 0.23,1.47 0,2.03 -0.23,0.56 -0.41,0.1 -0.41,-1.02 z m 1921.63,0 c 0,-1.12 0.18,-1.57 0.41,-1.02 0.23,0.56 0.23,1.47 0,2.03 -0.23,0.56 -0.41,0.1 -0.41,-1.02 z M 19.57,959.53 c 0.04,-0.95 0.23,-1.14 0.49,-0.49 0.23,0.59 0.21,1.29 -0.06,1.56 -0.27,0.27 -0.46,-0.21 -0.43,-1.07 z m 1923.25,0 c 0.04,-0.95 0.23,-1.14 0.49,-0.49 0.23,0.59 0.21,1.29 -0.06,1.56 -0.27,0.27 -0.46,-0.21 -0.43,-1.07 z M 18.76,953.84 c 0.04,-0.95 0.23,-1.14 0.49,-0.49 0.23,0.59 0.21,1.29 -0.06,1.56 -0.27,0.27 -0.46,-0.21 -0.43,-1.07 z m 1924.88,0 c 0.04,-0.95 0.23,-1.14 0.49,-0.49 0.23,0.59 0.21,1.29 -0.06,1.56 -0.27,0.27 -0.46,-0.21 -0.43,-1.07 z M 18.01,948.62 c 0,-1.12 0.18,-1.57 0.41,-1.02 0.23,0.56 0.23,1.47 0,2.03 -0.23,0.56 -0.41,0.1 -0.41,-1.02 z m 1926.5,0 c 0,-1.12 0.18,-1.57 0.41,-1.02 0.23,0.56 0.23,1.47 0,2.03 -0.23,0.56 -0.41,0.1 -0.41,-1.02 z M 17.2,942.93 c 0,-1.12 0.18,-1.57 0.41,-1.02 0.23,0.56 0.23,1.47 0,2.03 -0.23,0.56 -0.41,0.1 -0.41,-1.02 z m 1928.13,0 c 0,-1.12 0.18,-1.57 0.41,-1.02 0.23,0.56 0.23,1.47 0,2.03 -0.23,0.56 -0.41,0.1 -0.41,-1.02 z M 16.39,937.24 c 0,-1.12 0.18,-1.57 0.41,-1.02 0.23,0.56 0.23,1.47 0,2.03 -0.23,0.56 -0.41,0.1 -0.41,-1.02 z m 1929.75,0 c 0,-1.12 0.18,-1.57 0.41,-1.02 0.23,0.56 0.23,1.47 0,2.03 -0.23,0.56 -0.41,0.1 -0.41,-1.02 z M 15.51,931.08 c 0.04,-0.95 0.23,-1.14 0.49,-0.49 0.23,0.59 0.21,1.29 -0.06,1.56 -0.27,0.27 -0.46,-0.21 -0.43,-1.07 z m 1931.38,0 c 0.04,-0.95 0.23,-1.14 0.49,-0.49 0.23,0.59 0.21,1.29 -0.06,1.56 -0.27,0.27 -0.46,-0.21 -0.43,-1.07 z M 14.76,925.05 c 0,-1.12 0.18,-1.57 0.41,-1.02 0.23,0.56 0.23,1.47 0,2.03 -0.23,0.56 -0.41,0.1 -0.41,-1.02 z m 1933.01,0 c 0,-1.12 0.18,-1.57 0.41,-1.02 0.23,0.56 0.23,1.47 0,2.03 -0.23,0.56 -0.41,0.1 -0.41,-1.02 z M 13.95,918.54 c 0,-1.12 0.18,-1.57 0.41,-1.02 0.23,0.56 0.23,1.47 0,2.03 -0.23,0.56 -0.41,0.1 -0.41,-1.02 z m 1934.63,0 c 0,-1.12 0.18,-1.57 0.41,-1.02 0.23,0.56 0.23,1.47 0,2.03 -0.23,0.56 -0.41,0.1 -0.41,-1.02 z M 13.13,912.04 c 0,-1.12 0.18,-1.57 0.41,-1.02 0.23,0.56 0.23,1.47 0,2.03 -0.23,0.56 -0.41,0.1 -0.41,-1.02 z m 1936.26,0 c 0,-1.12 0.18,-1.57 0.41,-1.02 0.23,0.56 0.23,1.47 0,2.03 -0.23,0.56 -0.41,0.1 -0.41,-1.02 z M 12.32,905.54 c 0,-1.12 0.18,-1.57 0.41,-1.02 0.23,0.56 0.23,1.47 0,2.03 -0.23,0.56 -0.41,0.1 -0.41,-1.02 z m 1937.88,0 c 0,-1.12 0.18,-1.57 0.41,-1.02 0.23,0.56 0.23,1.47 0,2.03 -0.23,0.56 -0.41,0.1 -0.41,-1.02 z M 11.54,898.63 c 0.02,-1.34 0.2,-1.79 0.4,-1 0.21,0.79 0.19,1.89 -0.03,2.44 -0.22,0.55 -0.39,-0.1 -0.37,-1.44 z M 1951.02,898.22 c 0,-1.12 0.18,-1.57 0.41,-1.02 0.23,0.56 0.23,1.47 0,2.03 -0.23,0.56 -0.41,0.1 -0.41,-1.02 z M 62.66,892.87 c 0.04,-0.95 0.23,-1.14 0.49,-0.49 0.23,0.59 0.21,1.29 -0.06,1.56 -0.27,0.27 -0.46,-0.21 -0.43,-1.07 z m -51.93,-1.56 c 0.02,-1.34 0.2,-1.79 0.4,-1 0.21,0.79 0.19,1.89 -0.03,2.44 -0.22,0.55 -0.39,-0.1 -0.37,-1.44 z m 1941.13,0 c 0.02,-1.34 0.2,-1.79 0.4,-1 0.21,0.79 0.19,1.89 -0.03,2.44 -0.22,0.55 -0.39,-0.1 -0.37,-1.44 z M 9.91,884 c 0.02,-1.34 0.2,-1.79 0.4,-1 0.21,0.79 0.19,1.89 -0.03,2.44 -0.22,0.55 -0.39,-0.1 -0.37,-1.44 z m 1942.76,0 c 0.02,-1.34 0.2,-1.79 0.4,-1 0.21,0.79 0.19,1.89 -0.03,2.44 -0.22,0.55 -0.39,-0.1 -0.37,-1.44 z M 61.03,879.05 c 0.04,-0.95 0.23,-1.14 0.49,-0.49 0.23,0.59 0.21,1.29 -0.06,1.56 -0.27,0.27 -0.46,-0.21 -0.43,-1.07 z m 1840.34,0 c 0.04,-0.95 0.23,-1.14 0.49,-0.49 0.23,0.59 0.21,1.29 -0.06,1.56 -0.27,0.27 -0.46,-0.21 -0.43,-1.07 z M 9.1,875.87 c 0.02,-1.34 0.2,-1.79 0.4,-1 0.21,0.79 0.19,1.89 -0.03,2.44 -0.22,0.55 -0.39,-0.1 -0.37,-1.44 z m 1944.39,0 c 0.02,-1.34 0.2,-1.79 0.4,-1 0.21,0.79 0.19,1.89 -0.03,2.44 -0.22,0.55 -0.39,-0.1 -0.37,-1.44 z M 60.22,871.74 c 0.04,-0.95 0.23,-1.14 0.49,-0.49 0.23,0.59 0.21,1.29 -0.06,1.56 -0.27,0.27 -0.46,-0.21 -0.43,-1.07 z m 1841.96,0 c 0.04,-0.95 0.23,-1.14 0.49,-0.49 0.23,0.59 0.21,1.29 -0.06,1.56 -0.27,0.27 -0.46,-0.21 -0.43,-1.07 z M 8.29,867.74 c 0.02,-1.34 0.2,-1.79 0.4,-1 0.21,0.79 0.19,1.89 -0.03,2.44 -0.22,0.55 -0.39,-0.1 -0.37,-1.44 z m 1946.01,0 c 0.02,-1.34 0.2,-1.79 0.4,-1 0.21,0.79 0.19,1.89 -0.03,2.44 -0.22,0.55 -0.39,-0.1 -0.37,-1.44 z M 7.47,859.61 c 0.02,-1.34 0.2,-1.79 0.4,-1 0.21,0.79 0.19,1.89 -0.03,2.44 -0.22,0.55 -0.39,-0.1 -0.37,-1.44 z m 1947.64,0 c 0.02,-1.34 0.2,-1.79 0.4,-1 0.21,0.79 0.19,1.89 -0.03,2.44 -0.22,0.55 -0.39,-0.1 -0.37,-1.44 z M 6.66,850.67 c 0.02,-1.34 0.2,-1.79 0.4,-1 0.21,0.79 0.19,1.89 -0.03,2.44 -0.22,0.55 -0.39,-0.1 -0.37,-1.44 z m 1949.26,0 c 0.02,-1.34 0.2,-1.79 0.4,-1 0.21,0.79 0.19,1.89 -0.03,2.44 -0.22,0.55 -0.39,-0.1 -0.37,-1.44 z M 57.78,847.35 c 0.04,-0.95 0.23,-1.14 0.49,-0.49 0.23,0.59 0.21,1.29 -0.06,1.56 -0.27,0.27 -0.46,-0.21 -0.43,-1.07 z m 1846.84,0 c 0.04,-0.95 0.23,-1.14 0.49,-0.49 0.23,0.59 0.21,1.29 -0.06,1.56 -0.27,0.27 -0.46,-0.21 -0.43,-1.07 z M 5.88,841.32 c 0,-1.56 0.17,-2.2 0.37,-1.42 0.2,0.78 0.2,2.06 0,2.85 -0.2,0.78 -0.37,0.14 -0.37,-1.42 z m 1950.89,0 c 0,-1.56 0.17,-2.2 0.37,-1.42 0.2,0.78 0.2,2.06 0,2.85 -0.2,0.78 -0.37,0.14 -0.37,-1.42 z M 56.97,838.41 c 0.04,-0.95 0.23,-1.14 0.49,-0.49 0.23,0.59 0.21,1.29 -0.06,1.56 -0.27,0.27 -0.46,-0.21 -0.43,-1.07 z m 1848.47,0 c 0.04,-0.95 0.23,-1.14 0.49,-0.49 0.23,0.59 0.21,1.29 -0.06,1.56 -0.27,0.27 -0.46,-0.21 -0.43,-1.07 z M 5.07,830.75 c 0,-1.56 0.17,-2.2 0.37,-1.42 0.2,0.78 0.2,2.06 0,2.85 -0.2,0.78 -0.37,0.14 -0.37,-1.42 z m 1952.51,0 c 0,-1.56 0.17,-2.2 0.37,-1.42 0.2,0.78 0.2,2.06 0,2.85 -0.2,0.78 -0.37,0.14 -0.37,-1.42 z M 56.15,828.65 c 0.04,-0.95 0.23,-1.14 0.49,-0.49 0.23,0.59 0.21,1.29 -0.06,1.56 -0.27,0.27 -0.46,-0.21 -0.43,-1.07 z m 1850.09,0 c 0.04,-0.95 0.23,-1.14 0.49,-0.49 0.23,0.59 0.21,1.29 -0.06,1.56 -0.27,0.27 -0.46,-0.21 -0.43,-1.07 z M 4.27,819.78 c 0.01,-1.79 0.18,-2.42 0.37,-1.41 0.19,1.01 0.19,2.47 -0.02,3.25 -0.2,0.78 -0.36,-0.05 -0.35,-1.84 z m 1954.14,0 c 0.01,-1.79 0.18,-2.42 0.37,-1.41 0.19,1.01 0.19,2.47 -0.02,3.25 -0.2,0.78 -0.36,-0.05 -0.35,-1.84 z M 55.4,818.56 c 0,-1.12 0.18,-1.57 0.41,-1.02 0.23,0.56 0.23,1.47 0,2.03 -0.23,0.56 -0.41,0.1 -0.41,-1.02 z m 1851.72,0 c 0,-1.12 0.18,-1.57 0.41,-1.02 0.23,0.56 0.23,1.47 0,2.03 -0.23,0.56 -0.41,0.1 -0.41,-1.02 z M 3.47,807.99 c 0,-2.01 0.16,-2.83 0.35,-1.83 0.19,1.01 0.19,2.65 0,3.66 -0.19,1.01 -0.35,0.18 -0.35,-1.83 z m 1955.77,0 c 0,-2.01 0.16,-2.83 0.35,-1.83 0.19,1.01 0.19,2.65 0,3.66 -0.19,1.01 -0.35,0.18 -0.35,-1.83 z M 54.59,807.18 c 0,-1.12 0.18,-1.57 0.41,-1.02 0.23,0.56 0.23,1.47 0,2.03 -0.23,0.56 -0.41,0.1 -0.41,-1.02 z m 1853.28,0.34 c 0.04,-0.95 0.23,-1.14 0.49,-0.49 0.23,0.59 0.21,1.29 -0.06,1.56 -0.27,0.27 -0.46,-0.21 -0.43,-1.07 z M 2.67,794.58 c 0.01,-2.24 0.16,-3.05 0.35,-1.82 0.19,1.24 0.18,3.06 -0.01,4.06 -0.19,1 -0.35,-0.01 -0.34,-2.25 z M 1960.05,794.17 c 0,-2.01 0.16,-2.83 0.35,-1.83 0.19,1.01 0.19,2.65 0,3.66 -0.19,1.01 -0.35,0.18 -0.35,-1.83 z M 53.78,794.99 c 0,-1.12 0.18,-1.57 0.41,-1.02 0.23,0.56 0.23,1.47 0,2.03 -0.23,0.56 -0.41,0.1 -0.41,-1.02 z m 1854.97,0 c 0,-1.12 0.18,-1.57 0.41,-1.02 0.23,0.56 0.23,1.47 0,2.03 -0.23,0.56 -0.41,0.1 -0.41,-1.02 z M 53,781.57 c 0.02,-1.34 0.2,-1.79 0.4,-1 0.21,0.79 0.19,1.89 -0.03,2.44 -0.22,0.55 -0.39,-0.1 -0.37,-1.44 z m 1856.6,0 c 0.02,-1.34 0.2,-1.79 0.4,-1 0.21,0.79 0.19,1.89 -0.03,2.44 -0.22,0.55 -0.39,-0.1 -0.37,-1.44 z M 1.87,778.73 c 0,-2.46 0.15,-3.46 0.34,-2.24 0.19,1.23 0.19,3.24 0,4.47 -0.19,1.23 -0.34,0.22 -0.34,-2.24 z M 1960.9,778.32 c 0.01,-2.68 0.16,-3.68 0.34,-2.22 0.18,1.46 0.18,3.66 -0.01,4.88 -0.19,1.22 -0.33,0.03 -0.33,-2.66 z M 52.21,764.91 c 0,-1.56 0.17,-2.2 0.37,-1.42 0.2,0.78 0.2,2.06 0,2.85 -0.2,0.78 -0.37,0.14 -0.37,-1.42 z m 1858.22,0 c 0,-1.56 0.17,-2.2 0.37,-1.42 0.2,0.78 0.2,2.06 0,2.85 -0.2,0.78 -0.37,0.14 -0.37,-1.42 z M 1.09,759.22 c 0,-3.35 0.14,-4.72 0.32,-3.05 0.18,1.68 0.18,4.42 0,6.1 -0.18,1.68 -0.32,0.3 -0.32,-3.05 z m 1960.64,0 c 0,-3.35 0.14,-4.72 0.32,-3.05 0.18,1.68 0.18,4.42 0,6.1 -0.18,1.68 -0.32,0.3 -0.32,-3.05 z M 51.43,743.78 c 0,-2.01 0.16,-2.83 0.35,-1.83 0.19,1.01 0.19,2.65 0,3.66 -0.19,1.01 -0.35,0.18 -0.35,-1.83 z m 1859.85,0 c 0,-2.01 0.16,-2.83 0.35,-1.83 0.19,1.01 0.19,2.65 0,3.66 -0.19,1.01 -0.35,0.18 -0.35,-1.83 z M 0.31,729.96 c 0,-5.59 0.13,-7.87 0.29,-5.08 0.16,2.79 0.16,7.37 0,10.16 -0.16,2.79 -0.29,0.51 -0.29,-5.08 z m 1962.27,0 c 0,-5.59 0.13,-7.87 0.29,-5.08 0.16,2.79 0.16,7.37 0,10.16 -0.16,2.79 -0.29,0.51 -0.29,-5.08 z M 50.76,687.69 c 0,-14.53 0.11,-20.47 0.24,-13.21 0.13,7.27 0.13,19.15 0,26.42 -0.13,7.27 -0.24,1.32 -0.24,-13.21 z m 1861.47,0 c 0,-14.53 0.11,-20.47 0.24,-13.21 0.13,7.27 0.13,19.15 0,26.42 -0.13,7.27 -0.24,1.32 -0.24,-13.21 z M 0.31,655.99 c 0,-5.59 0.13,-7.87 0.29,-5.08 0.16,2.79 0.16,7.37 0,10.16 -0.16,2.79 -0.29,0.51 -0.29,-5.08 z m 1962.27,0 c 0,-5.59 0.13,-7.87 0.29,-5.08 0.16,2.79 0.16,7.37 0,10.16 -0.16,2.79 -0.29,0.51 -0.29,-5.08 z M 51.43,631.6 c 0,-2.01 0.16,-2.83 0.35,-1.83 0.19,1.01 0.19,2.65 0,3.66 -0.19,1.01 -0.35,0.18 -0.35,-1.83 z m 1859.85,0 c 0,-2.01 0.16,-2.83 0.35,-1.83 0.19,1.01 0.19,2.65 0,3.66 -0.19,1.01 -0.35,0.18 -0.35,-1.83 z M 1.09,626.72 c 0,-3.35 0.14,-4.72 0.32,-3.05 0.18,1.68 0.18,4.42 0,6.1 -0.18,1.68 -0.32,0.3 -0.32,-3.05 z m 1960.64,0 c 0,-3.35 0.14,-4.72 0.32,-3.05 0.18,1.68 0.18,4.42 0,6.1 -0.18,1.68 -0.32,0.3 -0.32,-3.05 z M 52.21,610.47 c 0,-1.56 0.17,-2.2 0.37,-1.42 0.2,0.78 0.2,2.06 0,2.85 -0.2,0.78 -0.37,0.14 -0.37,-1.42 z m 1858.22,0 c 0,-1.56 0.17,-2.2 0.37,-1.42 0.2,0.78 0.2,2.06 0,2.85 -0.2,0.78 -0.37,0.14 -0.37,-1.42 z M 1.88,607.62 c 0,-2.68 0.16,-3.68 0.34,-2.22 0.18,1.46 0.18,3.66 -0.01,4.88 -0.19,1.22 -0.33,0.03 -0.33,-2.66 z m 1959.02,0 c 0.01,-2.68 0.16,-3.68 0.34,-2.22 0.18,1.46 0.18,3.66 -0.01,4.88 -0.19,1.22 -0.33,0.03 -0.33,-2.66 z M 53,593.8 c 0.02,-1.34 0.2,-1.79 0.4,-1 0.21,0.79 0.19,1.89 -0.03,2.44 -0.22,0.55 -0.39,-0.1 -0.37,-1.44 z m 1856.6,0 c 0.02,-1.34 0.2,-1.79 0.4,-1 0.21,0.79 0.19,1.89 -0.03,2.44 -0.22,0.55 -0.39,-0.1 -0.37,-1.44 z m 50.47,-1.63 c 0.01,-2.24 0.16,-3.05 0.35,-1.82 0.19,1.24 0.18,3.06 -0.01,4.06 -0.19,1 -0.35,-0.01 -0.34,-2.25 z M 2.66,591.77 c 0,-2.01 0.16,-2.83 0.35,-1.83 0.19,1.01 0.19,2.65 0,3.66 -0.19,1.01 -0.35,0.18 -0.35,-1.83 z M 53.78,580.39 c 0,-1.12 0.18,-1.57 0.41,-1.02 0.23,0.56 0.23,1.47 0,2.03 -0.23,0.56 -0.41,0.1 -0.41,-1.02 z m 1854.97,0 c 0,-1.12 0.18,-1.57 0.41,-1.02 0.23,0.56 0.23,1.47 0,2.03 -0.23,0.56 -0.41,0.1 -0.41,-1.02 z M 3.47,577.95 c 0,-2.01 0.16,-2.83 0.35,-1.83 0.19,1.01 0.19,2.65 0,3.66 -0.19,1.01 -0.35,0.18 -0.35,-1.83 z M 1959.22,578.36 c 0.01,-1.79 0.18,-2.42 0.37,-1.41 0.19,1.01 0.19,2.47 -0.02,3.25 -0.2,0.78 -0.36,-0.05 -0.35,-1.84 z M 4.27,566.16 c 0.01,-1.79 0.18,-2.42 0.37,-1.41 0.19,1.01 0.19,2.47 -0.02,3.25 -0.2,0.78 -0.36,-0.05 -0.35,-1.84 z m 50.26,1.56 c 0.04,-0.95 0.23,-1.14 0.49,-0.49 0.23,0.59 0.21,1.29 -0.06,1.56 -0.27,0.27 -0.46,-0.21 -0.43,-1.07 z m 1853.34,0 c 0.04,-0.95 0.23,-1.14 0.49,-0.49 0.23,0.59 0.21,1.29 -0.06,1.56 -0.27,0.27 -0.46,-0.21 -0.43,-1.07 z m 50.54,-1.56 c 0.01,-1.79 0.18,-2.42 0.37,-1.41 0.19,1.01 0.19,2.47 -0.02,3.25 -0.2,0.78 -0.36,-0.05 -0.35,-1.84 z M 55.4,556.82 c 0,-1.12 0.18,-1.57 0.41,-1.02 0.23,0.56 0.23,1.47 0,2.03 -0.23,0.56 -0.41,0.1 -0.41,-1.02 z m 1851.72,0 c 0,-1.12 0.18,-1.57 0.41,-1.02 0.23,0.56 0.23,1.47 0,2.03 -0.23,0.56 -0.41,0.1 -0.41,-1.02 z M 5.07,555.19 c 0,-1.56 0.17,-2.2 0.37,-1.42 0.2,0.78 0.2,2.06 0,2.85 -0.2,0.78 -0.37,0.14 -0.37,-1.42 z m 1952.51,0 c 0,-1.56 0.17,-2.2 0.37,-1.42 0.2,0.78 0.2,2.06 0,2.85 -0.2,0.78 -0.37,0.14 -0.37,-1.42 z M 56.15,546.59 c 0.04,-0.95 0.23,-1.14 0.49,-0.49 0.23,0.59 0.21,1.29 -0.06,1.56 -0.27,0.27 -0.46,-0.21 -0.43,-1.07 z m 1850.09,0 c 0.04,-0.95 0.23,-1.14 0.49,-0.49 0.23,0.59 0.21,1.29 -0.06,1.56 -0.27,0.27 -0.46,-0.21 -0.43,-1.07 z M 5.88,544.62 c 0,-1.56 0.17,-2.2 0.37,-1.42 0.2,0.78 0.2,2.06 0,2.85 -0.2,0.78 -0.37,0.14 -0.37,-1.42 z m 1950.89,0 c 0,-1.56 0.17,-2.2 0.37,-1.42 0.2,0.78 0.2,2.06 0,2.85 -0.2,0.78 -0.37,0.14 -0.37,-1.42 z M 6.69,535.68 c 0,-1.56 0.17,-2.2 0.37,-1.42 0.2,0.78 0.2,2.06 0,2.85 -0.2,0.78 -0.37,0.14 -0.37,-1.42 z m 50.27,1.15 c 0.04,-0.95 0.23,-1.14 0.49,-0.49 0.23,0.59 0.21,1.29 -0.06,1.56 -0.27,0.27 -0.46,-0.21 -0.43,-1.07 z m 1848.47,0 c 0.04,-0.95 0.23,-1.14 0.49,-0.49 0.23,0.59 0.21,1.29 -0.06,1.56 -0.27,0.27 -0.46,-0.21 -0.43,-1.07 z m 50.52,-1.15 c 0,-1.56 0.17,-2.2 0.37,-1.42 0.2,0.78 0.2,2.06 0,2.85 -0.2,0.78 -0.37,0.14 -0.37,-1.42 z M 57.78,527.89 c 0.04,-0.95 0.23,-1.14 0.49,-0.49 0.23,0.59 0.21,1.29 -0.06,1.56 -0.27,0.27 -0.46,-0.21 -0.43,-1.07 z m 1846.84,0 c 0.04,-0.95 0.23,-1.14 0.49,-0.49 0.23,0.59 0.21,1.29 -0.06,1.56 -0.27,0.27 -0.46,-0.21 -0.43,-1.07 z M 7.47,526.33 c 0.02,-1.34 0.2,-1.79 0.4,-1 0.21,0.79 0.19,1.89 -0.03,2.44 -0.22,0.55 -0.39,-0.1 -0.37,-1.44 z m 1947.64,0 c 0.02,-1.34 0.2,-1.79 0.4,-1 0.21,0.79 0.19,1.89 -0.03,2.44 -0.22,0.55 -0.39,-0.1 -0.37,-1.44 z M 8.29,518.2 c 0.02,-1.34 0.2,-1.79 0.4,-1 0.21,0.79 0.19,1.89 -0.03,2.44 -0.22,0.55 -0.39,-0.1 -0.37,-1.44 z m 1946.01,0 c 0.02,-1.34 0.2,-1.79 0.4,-1 0.21,0.79 0.19,1.89 -0.03,2.44 -0.22,0.55 -0.39,-0.1 -0.37,-1.44 z M 9.1,510.08 c 0.02,-1.34 0.2,-1.79 0.4,-1 0.21,0.79 0.19,1.89 -0.03,2.44 -0.22,0.55 -0.39,-0.1 -0.37,-1.44 z m 1944.39,0 c 0.02,-1.34 0.2,-1.79 0.4,-1 0.21,0.79 0.19,1.89 -0.03,2.44 -0.22,0.55 -0.39,-0.1 -0.37,-1.44 z M 60.22,503.51 c 0.04,-0.95 0.23,-1.14 0.49,-0.49 0.23,0.59 0.21,1.29 -0.06,1.56 -0.27,0.27 -0.46,-0.21 -0.43,-1.07 z m 1841.96,0 c 0.04,-0.95 0.23,-1.14 0.49,-0.49 0.23,0.59 0.21,1.29 -0.06,1.56 -0.27,0.27 -0.46,-0.21 -0.43,-1.07 z M 9.91,501.95 c 0.02,-1.34 0.2,-1.79 0.4,-1 0.21,0.79 0.19,1.89 -0.03,2.44 -0.22,0.55 -0.39,-0.1 -0.37,-1.44 z m 1942.76,0 c 0.02,-1.34 0.2,-1.79 0.4,-1 0.21,0.79 0.19,1.89 -0.03,2.44 -0.22,0.55 -0.39,-0.1 -0.37,-1.44 z M 61.03,496.19 c 0.04,-0.95 0.23,-1.14 0.49,-0.49 0.23,0.59 0.21,1.29 -0.06,1.56 -0.27,0.27 -0.46,-0.21 -0.43,-1.07 z m 1840.34,0 c 0.04,-0.95 0.23,-1.14 0.49,-0.49 0.23,0.59 0.21,1.29 -0.06,1.56 -0.27,0.27 -0.46,-0.21 -0.43,-1.07 z m -1890.64,-1.56 c 0.02,-1.34 0.2,-1.79 0.4,-1 0.21,0.79 0.19,1.89 -0.03,2.44 -0.22,0.55 -0.39,-0.1 -0.37,-1.44 z m 1941.13,0 c 0.02,-1.34 0.2,-1.79 0.4,-1 0.21,0.79 0.19,1.89 -0.03,2.44 -0.22,0.55 -0.39,-0.1 -0.37,-1.44 z M 11.51,487.72 c 0,-1.12 0.18,-1.57 0.41,-1.02 0.23,0.56 0.23,1.47 0,2.03 -0.23,0.56 -0.41,0.1 -0.41,-1.02 z m 1939.51,0 c 0,-1.12 0.18,-1.57 0.41,-1.02 0.23,0.56 0.23,1.47 0,2.03 -0.23,0.56 -0.41,0.1 -0.41,-1.02 z M 62.66,482.37 c 0.04,-0.95 0.23,-1.14 0.49,-0.49 0.23,0.59 0.21,1.29 -0.06,1.56 -0.27,0.27 -0.46,-0.21 -0.43,-1.07 z m 1837.09,0 c 0.04,-0.95 0.23,-1.14 0.49,-0.49 0.23,0.59 0.21,1.29 -0.06,1.56 -0.27,0.27 -0.46,-0.21 -0.43,-1.07 z M 12.32,480.41 c 0,-1.12 0.18,-1.57 0.41,-1.02 0.23,0.56 0.23,1.47 0,2.03 -0.23,0.56 -0.41,0.1 -0.41,-1.02 z m 1937.88,0 c 0,-1.12 0.18,-1.57 0.41,-1.02 0.23,0.56 0.23,1.47 0,2.03 -0.23,0.56 -0.41,0.1 -0.41,-1.02 z M 13.13,473.9 c 0,-1.12 0.18,-1.57 0.41,-1.02 0.23,0.56 0.23,1.47 0,2.03 -0.23,0.56 -0.41,0.1 -0.41,-1.02 z m 1936.26,0 c 0,-1.12 0.18,-1.57 0.41,-1.02 0.23,0.56 0.23,1.47 0,2.03 -0.23,0.56 -0.41,0.1 -0.41,-1.02 z M 13.95,467.4 c 0,-1.12 0.18,-1.57 0.41,-1.02 0.23,0.56 0.23,1.47 0,2.03 -0.23,0.56 -0.41,0.1 -0.41,-1.02 z m 1934.63,0 c 0,-1.12 0.18,-1.57 0.41,-1.02 0.23,0.56 0.23,1.47 0,2.03 -0.23,0.56 -0.41,0.1 -0.41,-1.02 z M 14.76,460.9 c 0,-1.12 0.18,-1.57 0.41,-1.02 0.23,0.56 0.23,1.47 0,2.03 -0.23,0.56 -0.41,0.1 -0.41,-1.02 z m 1933.01,0 c 0,-1.12 0.18,-1.57 0.41,-1.02 0.23,0.56 0.23,1.47 0,2.03 -0.23,0.56 -0.41,0.1 -0.41,-1.02 z M 15.57,455.21 c 0,-1.12 0.18,-1.57 0.41,-1.02 0.23,0.56 0.23,1.47 0,2.03 -0.23,0.56 -0.41,0.1 -0.41,-1.02 z m 1931.38,0 c 0,-1.12 0.18,-1.57 0.41,-1.02 0.23,0.56 0.23,1.47 0,2.03 -0.23,0.56 -0.41,0.1 -0.41,-1.02 z M 16.32,449.04 c 0.04,-0.95 0.23,-1.14 0.49,-0.49 0.23,0.59 0.21,1.29 -0.06,1.56 -0.27,0.27 -0.46,-0.21 -0.43,-1.07 z m 1929.75,0 c 0.04,-0.95 0.23,-1.14 0.49,-0.49 0.23,0.59 0.21,1.29 -0.06,1.56 -0.27,0.27 -0.46,-0.21 -0.43,-1.07 z M 17.2,443.01 c 0,-1.12 0.18,-1.57 0.41,-1.02 0.23,0.56 0.23,1.47 0,2.03 -0.23,0.56 -0.41,0.1 -0.41,-1.02 z m 1928.13,0 c 0,-1.12 0.18,-1.57 0.41,-1.02 0.23,0.56 0.23,1.47 0,2.03 -0.23,0.56 -0.41,0.1 -0.41,-1.02 z M 18.01,437.32 c 0,-1.12 0.18,-1.57 0.41,-1.02 0.23,0.56 0.23,1.47 0,2.03 -0.23,0.56 -0.41,0.1 -0.41,-1.02 z M 1944.45,437.66 c 0.04,-0.95 0.23,-1.14 0.49,-0.49 0.23,0.59 0.21,1.29 -0.06,1.56 -0.27,0.27 -0.46,-0.21 -0.43,-1.07 z M 18.76,431.97 c 0.04,-0.95 0.23,-1.14 0.49,-0.49 0.23,0.59 0.21,1.29 -0.06,1.56 -0.27,0.27 -0.46,-0.21 -0.43,-1.07 z m 1924.88,0 c 0.04,-0.95 0.23,-1.14 0.49,-0.49 0.23,0.59 0.21,1.29 -0.06,1.56 -0.27,0.27 -0.46,-0.21 -0.43,-1.07 z M 19.57,426.28 c 0.04,-0.95 0.23,-1.14 0.49,-0.49 0.23,0.59 0.21,1.29 -0.06,1.56 -0.27,0.27 -0.46,-0.21 -0.43,-1.07 z m 1923.25,0 c 0.04,-0.95 0.23,-1.14 0.49,-0.49 0.23,0.59 0.21,1.29 -0.06,1.56 -0.27,0.27 -0.46,-0.21 -0.43,-1.07 z M 20.39,421.41 c 0.04,-0.95 0.23,-1.14 0.49,-0.49 0.23,0.59 0.21,1.29 -0.06,1.56 -0.27,0.27 -0.46,-0.21 -0.43,-1.07 z m 1921.63,0 c 0.04,-0.95 0.23,-1.14 0.49,-0.49 0.23,0.59 0.21,1.29 -0.06,1.56 -0.27,0.27 -0.46,-0.21 -0.43,-1.07 z M 21.2,415.72 c 0.04,-0.95 0.23,-1.14 0.49,-0.49 0.23,0.59 0.21,1.29 -0.06,1.56 -0.27,0.27 -0.46,-0.21 -0.43,-1.07 z m 1920,0 c 0.04,-0.95 0.23,-1.14 0.49,-0.49 0.23,0.59 0.21,1.29 -0.06,1.56 -0.27,0.27 -0.46,-0.21 -0.43,-1.07 z M 22.01,410.84 c 0.04,-0.95 0.23,-1.14 0.49,-0.49 0.23,0.59 0.21,1.29 -0.06,1.56 -0.27,0.27 -0.46,-0.21 -0.43,-1.07 z m 1918.37,0 c 0.04,-0.95 0.23,-1.14 0.49,-0.49 0.23,0.59 0.21,1.29 -0.06,1.56 -0.27,0.27 -0.46,-0.21 -0.43,-1.07 z M 22.82,405.96 c 0.04,-0.95 0.23,-1.14 0.49,-0.49 0.23,0.59 0.21,1.29 -0.06,1.56 -0.27,0.27 -0.46,-0.21 -0.43,-1.07 z m 1916.75,0 c 0.04,-0.95 0.23,-1.14 0.49,-0.49 0.23,0.59 0.21,1.29 -0.06,1.56 -0.27,0.27 -0.46,-0.21 -0.43,-1.07 z M 23.64,401.08 c 0.04,-0.95 0.23,-1.14 0.49,-0.49 0.23,0.59 0.21,1.29 -0.06,1.56 -0.27,0.27 -0.46,-0.21 -0.43,-1.07 z m 1915.12,0 c 0.04,-0.95 0.23,-1.14 0.49,-0.49 0.23,0.59 0.21,1.29 -0.06,1.56 -0.27,0.27 -0.46,-0.21 -0.43,-1.07 z M 24.45,396.21 c 0.04,-0.95 0.23,-1.14 0.49,-0.49 0.23,0.59 0.21,1.29 -0.06,1.56 -0.27,0.27 -0.46,-0.21 -0.43,-1.07 z m 1913.5,0 c 0.04,-0.95 0.23,-1.14 0.49,-0.49 0.23,0.59 0.21,1.29 -0.06,1.56 -0.27,0.27 -0.46,-0.21 -0.43,-1.07 z M 25.26,391.33 c 0.04,-0.95 0.23,-1.14 0.49,-0.49 0.23,0.59 0.21,1.29 -0.06,1.56 -0.27,0.27 -0.46,-0.21 -0.43,-1.07 z m 1911.87,0 c 0.04,-0.95 0.23,-1.14 0.49,-0.49 0.23,0.59 0.21,1.29 -0.06,1.56 -0.27,0.27 -0.46,-0.21 -0.43,-1.07 z M 26.08,386.45 c 0.04,-0.95 0.23,-1.14 0.49,-0.49 0.23,0.59 0.21,1.29 -0.06,1.56 -0.27,0.27 -0.46,-0.21 -0.43,-1.07 z m 1910.25,0 c 0.04,-0.95 0.23,-1.14 0.49,-0.49 0.23,0.59 0.21,1.29 -0.06,1.56 -0.27,0.27 -0.46,-0.21 -0.43,-1.07 z M 26.89,381.57 c 0.04,-0.95 0.23,-1.14 0.49,-0.49 0.23,0.59 0.21,1.29 -0.06,1.56 -0.27,0.27 -0.46,-0.21 -0.43,-1.07 z m 1908.62,0 c 0.04,-0.95 0.23,-1.14 0.49,-0.49 0.23,0.59 0.21,1.29 -0.06,1.56 -0.27,0.27 -0.46,-0.21 -0.43,-1.07 z M 27.7,377.51 c 0.04,-0.95 0.23,-1.14 0.49,-0.49 0.23,0.59 0.21,1.29 -0.06,1.56 -0.27,0.27 -0.46,-0.21 -0.43,-1.07 z m 1906.99,0 c 0.04,-0.95 0.23,-1.14 0.49,-0.49 0.23,0.59 0.21,1.29 -0.06,1.56 -0.27,0.27 -0.46,-0.21 -0.43,-1.07 z M 28.51,372.63 c 0.04,-0.95 0.23,-1.14 0.49,-0.49 0.23,0.59 0.21,1.29 -0.06,1.56 -0.27,0.27 -0.46,-0.21 -0.43,-1.07 z m 1905.37,0 c 0.04,-0.95 0.23,-1.14 0.49,-0.49 0.23,0.59 0.21,1.29 -0.06,1.56 -0.27,0.27 -0.46,-0.21 -0.43,-1.07 z M 29.33,368.57 c 0.04,-0.95 0.23,-1.14 0.49,-0.49 0.23,0.59 0.21,1.29 -0.06,1.56 -0.27,0.27 -0.46,-0.21 -0.43,-1.07 z m 1903.74,0 c 0.04,-0.95 0.23,-1.14 0.49,-0.49 0.23,0.59 0.21,1.29 -0.06,1.56 -0.27,0.27 -0.46,-0.21 -0.43,-1.07 z M 30.95,359.63 c 0.04,-0.95 0.23,-1.14 0.49,-0.49 0.23,0.59 0.21,1.29 -0.06,1.56 -0.27,0.27 -0.46,-0.21 -0.43,-1.07 z m 1900.49,0 c 0.04,-0.95 0.23,-1.14 0.49,-0.49 0.23,0.59 0.21,1.29 -0.06,1.56 -0.27,0.27 -0.46,-0.21 -0.43,-1.07 z M 31.77,355.56 c 0.04,-0.95 0.23,-1.14 0.49,-0.49 0.23,0.59 0.21,1.29 -0.06,1.56 -0.27,0.27 -0.46,-0.21 -0.43,-1.07 z m 1898.87,0 c 0.04,-0.95 0.23,-1.14 0.49,-0.49 0.23,0.59 0.21,1.29 -0.06,1.56 -0.27,0.27 -0.46,-0.21 -0.43,-1.07 z M 32.58,351.5 c 0.04,-0.95 0.23,-1.14 0.49,-0.49 0.23,0.59 0.21,1.29 -0.06,1.56 -0.27,0.27 -0.46,-0.21 -0.43,-1.07 z m 1897.24,0 c 0.04,-0.95 0.23,-1.14 0.49,-0.49 0.23,0.59 0.21,1.29 -0.06,1.56 -0.27,0.27 -0.46,-0.21 -0.43,-1.07 z m -0.81,-4.06 c 0.04,-0.95 0.23,-1.14 0.49,-0.49 0.23,0.59 0.21,1.29 -0.06,1.56 -0.27,0.27 -0.46,-0.21 -0.43,-1.07 z m -0.81,-4.06 c 0.04,-0.95 0.23,-1.14 0.49,-0.49 0.23,0.59 0.21,1.29 -0.06,1.56 -0.27,0.27 -0.46,-0.21 -0.43,-1.07 z m -0.81,-4.06 c 0.04,-0.95 0.23,-1.14 0.49,-0.49 0.23,0.59 0.21,1.29 -0.06,1.56 -0.27,0.27 -0.46,-0.21 -0.43,-1.07 z M 35.83,335.24 c 0.04,-0.95 0.23,-1.14 0.49,-0.49 0.23,0.59 0.21,1.29 -0.06,1.56 -0.27,0.27 -0.46,-0.21 -0.43,-1.07 z m 1890.74,0 c 0.04,-0.95 0.23,-1.14 0.49,-0.49 0.23,0.59 0.21,1.29 -0.06,1.56 -0.27,0.27 -0.46,-0.21 -0.43,-1.07 z M 36.64,331.18 c 0.04,-0.95 0.23,-1.14 0.49,-0.49 0.23,0.59 0.21,1.29 -0.06,1.56 -0.27,0.27 -0.46,-0.21 -0.43,-1.07 z m 1889.11,0 c 0.04,-0.95 0.23,-1.14 0.49,-0.49 0.23,0.59 0.21,1.29 -0.06,1.56 -0.27,0.27 -0.46,-0.21 -0.43,-1.07 z M 418.02,322.92 c 3.46,-0.15 9.13,-0.15 12.6,0 3.46,0.15 0.63,0.28 -6.3,0.28 -6.93,0 -9.76,-0.12 -6.3,-0.28 z m 1114.45,0 c 3.46,-0.15 9.13,-0.15 12.6,0 3.46,0.15 0.63,0.28 -6.3,0.28 -6.93,0 -9.76,-0.12 -6.3,-0.28 z M 383.88,322.15 c 0.78,-0.2 2.06,-0.2 2.85,0 0.78,0.2 0.14,0.37 -1.42,0.37 -1.56,0 -2.2,-0.17 -1.42,-0.37 z m 78.45,-0.01 c 1.01,-0.19 2.47,-0.19 3.25,0.02 0.78,0.2 -0.05,0.36 -1.84,0.35 -1.79,-0.01 -2.42,-0.18 -1.41,-0.37 z m 1035.6,0 c 1.01,-0.19 2.47,-0.19 3.25,0.02 0.78,0.2 -0.05,0.36 -1.84,0.35 -1.79,-0.01 -2.42,-0.18 -1.41,-0.37 z m 78.43,0.01 c 0.78,-0.2 2.06,-0.2 2.85,0 0.78,0.2 0.14,0.37 -1.42,0.37 -1.56,0 -2.2,-0.17 -1.42,-0.37 z M 367.21,321.36 c 0.56,-0.23 1.47,-0.23 2.03,0 0.56,0.23 0.1,0.41 -1.02,0.41 -1.12,0 -1.57,-0.18 -1.02,-0.41 z m 112.18,0 c 0.56,-0.23 1.47,-0.23 2.03,0 0.56,0.23 0.1,0.41 -1.02,0.41 -1.12,0 -1.57,-0.18 -1.02,-0.41 z m 1002.27,0 c 0.56,-0.23 1.47,-0.23 2.03,0 0.56,0.23 0.1,0.41 -1.02,0.41 -1.12,0 -1.57,-0.18 -1.02,-0.41 z m 112.18,0 c 0.56,-0.23 1.47,-0.23 2.03,0 0.56,0.23 0.1,0.41 -1.02,0.41 -1.12,0 -1.57,-0.18 -1.02,-0.41 z m -1238.76,-0.83 c 0.59,-0.23 1.29,-0.21 1.56,0.06 0.27,0.27 -0.21,0.46 -1.07,0.43 -0.95,-0.04 -1.14,-0.23 -0.49,-0.49 z m 137.32,0.02 c 0.56,-0.23 1.47,-0.23 2.03,0 0.56,0.23 0.1,0.41 -1.02,0.41 -1.12,0 -1.57,-0.18 -1.02,-0.41 z m 976.26,0 c 0.56,-0.23 1.47,-0.23 2.03,0 0.56,0.23 0.1,0.41 -1.02,0.41 -1.12,0 -1.57,-0.18 -1.02,-0.41 z m 138.24,-0.02 c 0.59,-0.23 1.29,-0.21 1.56,0.06 0.27,0.27 -0.21,0.46 -1.07,0.43 -0.95,-0.04 -1.14,-0.23 -0.49,-0.49 z m 316.42,-0.73 c 0.04,-0.95 0.23,-1.14 0.49,-0.49 0.23,0.59 0.21,1.29 -0.06,1.56 -0.27,0.27 -0.46,-0.21 -0.43,-1.07 z m -1578.81,-0.08 c 0.59,-0.23 1.29,-0.21 1.56,0.06 0.27,0.27 -0.21,0.46 -1.07,0.43 -0.95,-0.04 -1.14,-0.23 -0.49,-0.49 z m 158.46,0.02 c 0.56,-0.23 1.47,-0.23 2.03,0 0.56,0.23 0.1,0.41 -1.02,0.41 -1.12,0 -1.57,-0.18 -1.02,-0.41 z m 955.12,0 c 0.56,-0.23 1.47,-0.23 2.03,0 0.56,0.23 0.1,0.41 -1.02,0.41 -1.12,0 -1.57,-0.18 -1.02,-0.41 z m 159.37,-0.02 c 0.59,-0.23 1.29,-0.21 1.56,0.06 0.27,0.27 -0.21,0.46 -1.07,0.43 -0.95,-0.04 -1.14,-0.23 -0.49,-0.49 z m -1282.71,-0.81 c 0.59,-0.23 1.29,-0.21 1.56,0.06 0.27,0.27 -0.21,0.46 -1.07,0.43 -0.95,-0.04 -1.14,-0.23 -0.49,-0.49 z m 178.02,0 c 0.59,-0.23 1.29,-0.21 1.56,0.06 0.27,0.27 -0.21,0.46 -1.07,0.43 -0.95,-0.04 -1.14,-0.23 -0.49,-0.49 z m 936.43,0 c 0.59,-0.23 1.29,-0.21 1.56,0.06 0.27,0.27 -0.21,0.46 -1.07,0.43 -0.95,-0.04 -1.14,-0.23 -0.49,-0.49 z m 178.02,0 c 0.59,-0.23 1.29,-0.21 1.56,0.06 0.27,0.27 -0.21,0.46 -1.07,0.43 -0.95,-0.04 -1.14,-0.23 -0.49,-0.49 z M 326.62,318.09 c 0.59,-0.23 1.29,-0.21 1.56,0.06 0.27,0.27 -0.21,0.46 -1.07,0.43 -0.95,-0.04 -1.14,-0.23 -0.49,-0.49 z m 1308.72,0 c 0.59,-0.23 1.29,-0.21 1.56,0.06 0.27,0.27 -0.21,0.46 -1.07,0.43 -0.95,-0.04 -1.14,-0.23 -0.49,-0.49 z M 529.03,317.28 c 0.59,-0.23 1.29,-0.21 1.56,0.06 0.27,0.27 -0.21,0.46 -1.07,0.43 -0.95,-0.04 -1.14,-0.23 -0.49,-0.49 z m 903.91,0 c 0.59,-0.23 1.29,-0.21 1.56,0.06 0.27,0.27 -0.21,0.46 -1.07,0.43 -0.95,-0.04 -1.14,-0.23 -0.49,-0.49 z m -896.6,-0.81 c 0.59,-0.23 1.29,-0.21 1.56,0.06 0.27,0.27 -0.21,0.46 -1.07,0.43 -0.95,-0.04 -1.14,-0.23 -0.49,-0.49 z m 889.28,0 c 0.59,-0.23 1.29,-0.21 1.56,0.06 0.27,0.27 -0.21,0.46 -1.07,0.43 -0.95,-0.04 -1.14,-0.23 -0.49,-0.49 z M 41.52,308.42 c 0.04,-0.95 0.23,-1.14 0.49,-0.49 0.23,0.59 0.21,1.29 -0.06,1.56 -0.27,0.27 -0.46,-0.21 -0.43,-1.07 z M 396.91,280.65 c 2.14,-0.17 5.43,-0.17 7.32,0.01 1.89,0.17 0.14,0.31 -3.89,0.31 -4.02,0 -5.57,-0.14 -3.43,-0.31 z m 53.65,0 c 2.14,-0.17 5.43,-0.17 7.32,0.01 1.89,0.17 0.14,0.31 -3.89,0.31 -4.02,0 -5.57,-0.14 -3.43,-0.31 z m 1055.11,0 c 2.14,-0.17 5.43,-0.17 7.32,0.01 1.89,0.17 0.14,0.31 -3.89,0.31 -4.02,0 -5.57,-0.14 -3.43,-0.31 z m 53.65,0 c 2.14,-0.17 5.43,-0.17 7.32,0.01 1.89,0.17 0.14,0.31 -3.89,0.31 -4.02,0 -5.57,-0.14 -3.43,-0.31 z M 377.38,279.86 c 1.23,-0.19 3.24,-0.19 4.47,0 1.23,0.19 0.22,0.34 -2.24,0.34 -2.46,0 -3.46,-0.15 -2.24,-0.34 z m 95.11,0 c 1.23,-0.19 3.24,-0.19 4.47,0 1.23,0.19 0.22,0.34 -2.24,0.34 -2.46,0 -3.46,-0.15 -2.24,-0.34 z m 1013.65,0 c 1.23,-0.19 3.24,-0.19 4.47,0 1.23,0.19 0.22,0.34 -2.24,0.34 -2.46,0 -3.46,-0.15 -2.24,-0.34 z m 95.11,0 c 1.23,-0.19 3.24,-0.19 4.47,0 1.23,0.19 0.22,0.34 -2.24,0.34 -2.46,0 -3.46,-0.15 -2.24,-0.34 z M 363.96,279.05 c 1.01,-0.19 2.65,-0.19 3.66,0 1.01,0.19 0.18,0.35 -1.83,0.35 -2.01,0 -2.83,-0.16 -1.83,-0.35 z m 122.74,0 c 1.01,-0.19 2.65,-0.19 3.66,0 1.01,0.19 0.18,0.35 -1.83,0.35 -2.01,0 -2.83,-0.16 -1.83,-0.35 z m 986.01,0 c 1.01,-0.19 2.65,-0.19 3.66,0 1.01,0.19 0.18,0.35 -1.83,0.35 -2.01,0 -2.83,-0.16 -1.83,-0.35 z m 122.74,0 c 1.01,-0.19 2.65,-0.19 3.66,0 1.01,0.19 0.18,0.35 -1.83,0.35 -2.01,0 -2.83,-0.16 -1.83,-0.35 z M 352.99,278.25 c 0.78,-0.2 2.06,-0.2 2.85,0 0.78,0.2 0.14,0.37 -1.42,0.37 -1.56,0 -2.2,-0.17 -1.42,-0.37 z m 145.11,-0.01 c 1.01,-0.19 2.47,-0.19 3.25,0.02 0.78,0.2 -0.05,0.36 -1.84,0.35 -1.79,-0.01 -2.42,-0.18 -1.41,-0.37 z m 964.06,0 c 1.01,-0.19 2.47,-0.19 3.25,0.02 0.78,0.2 -0.05,0.36 -1.84,0.35 -1.79,-0.01 -2.42,-0.18 -1.41,-0.37 z m 145.09,0.01 c 0.78,-0.2 2.06,-0.2 2.85,0 0.78,0.2 0.14,0.37 -1.42,0.37 -1.56,0 -2.2,-0.17 -1.42,-0.37 z M 344.06,277.44 c 0.79,-0.21 1.89,-0.19 2.44,0.03 0.55,0.22 -0.1,0.39 -1.44,0.37 -1.34,-0.02 -1.79,-0.2 -1,-0.4 z m 164.2,0 c 0.79,-0.21 1.89,-0.19 2.44,0.03 0.55,0.22 -0.1,0.39 -1.44,0.37 -1.34,-0.02 -1.79,-0.2 -1,-0.4 z m 944.56,0 c 0.79,-0.21 1.89,-0.19 2.44,0.03 0.55,0.22 -0.1,0.39 -1.44,0.37 -1.34,-0.02 -1.79,-0.2 -1,-0.4 z m 164.2,0 c 0.79,-0.21 1.89,-0.19 2.44,0.03 0.55,0.22 -0.1,0.39 -1.44,0.37 -1.34,-0.02 -1.79,-0.2 -1,-0.4 z M 335.93,276.63 c 0.79,-0.21 1.89,-0.19 2.44,0.03 0.55,0.22 -0.1,0.39 -1.44,0.37 -1.34,-0.02 -1.79,-0.2 -1,-0.4 z m 180.46,0 c 0.79,-0.21 1.89,-0.19 2.44,0.03 0.55,0.22 -0.1,0.39 -1.44,0.37 -1.34,-0.02 -1.79,-0.2 -1,-0.4 z m 928.3,0 c 0.79,-0.21 1.89,-0.19 2.44,0.03 0.55,0.22 -0.1,0.39 -1.44,0.37 -1.34,-0.02 -1.79,-0.2 -1,-0.4 z m 180.46,0 c 0.79,-0.21 1.89,-0.19 2.44,0.03 0.55,0.22 -0.1,0.39 -1.44,0.37 -1.34,-0.02 -1.79,-0.2 -1,-0.4 z M 327.81,275.81 c 0.79,-0.21 1.89,-0.19 2.44,0.03 0.55,0.22 -0.1,0.39 -1.44,0.37 -1.34,-0.02 -1.79,-0.2 -1,-0.4 z m 196.71,0 c 0.79,-0.21 1.89,-0.19 2.44,0.03 0.55,0.22 -0.1,0.39 -1.44,0.37 -1.34,-0.02 -1.79,-0.2 -1,-0.4 z m 912.04,0 c 0.79,-0.21 1.89,-0.19 2.44,0.03 0.55,0.22 -0.1,0.39 -1.44,0.37 -1.34,-0.02 -1.79,-0.2 -1,-0.4 z m 196.71,0 c 0.79,-0.21 1.89,-0.19 2.44,0.03 0.55,0.22 -0.1,0.39 -1.44,0.37 -1.34,-0.02 -1.79,-0.2 -1,-0.4 z M 320.88,275.02 c 0.56,-0.23 1.47,-0.23 2.03,0 0.56,0.23 0.1,0.41 -1.02,0.41 -1.12,0 -1.57,-0.18 -1.02,-0.41 z m 210.96,-0.02 c 0.79,-0.21 1.89,-0.19 2.44,0.03 0.55,0.22 -0.1,0.39 -1.44,0.37 -1.34,-0.02 -1.79,-0.2 -1,-0.4 z m 897.41,0 c 0.79,-0.21 1.89,-0.19 2.44,0.03 0.55,0.22 -0.1,0.39 -1.44,0.37 -1.34,-0.02 -1.79,-0.2 -1,-0.4 z m 210.92,0.02 c 0.56,-0.23 1.47,-0.23 2.03,0 0.56,0.23 0.1,0.41 -1.02,0.41 -1.12,0 -1.57,-0.18 -1.02,-0.41 z M 313.56,274.21 c 0.56,-0.23 1.47,-0.23 2.03,0 0.56,0.23 0.1,0.41 -1.02,0.41 -1.12,0 -1.57,-0.18 -1.02,-0.41 z m 225.17,0 c 0.56,-0.23 1.47,-0.23 2.03,0 0.56,0.23 0.1,0.41 -1.02,0.41 -1.12,0 -1.57,-0.18 -1.02,-0.41 z m 883.59,0 c 0.56,-0.23 1.47,-0.23 2.03,0 0.56,0.23 0.1,0.41 -1.02,0.41 -1.12,0 -1.57,-0.18 -1.02,-0.41 z m 225.22,-0.02 c 0.59,-0.23 1.29,-0.21 1.56,0.06 0.27,0.27 -0.21,0.46 -1.07,0.43 -0.95,-0.04 -1.14,-0.23 -0.49,-0.49 z M 307.87,273.4 c 0.56,-0.23 1.47,-0.23 2.03,0 0.56,0.23 0.1,0.41 -1.02,0.41 -1.12,0 -1.57,-0.18 -1.02,-0.41 z m 237.41,-0.02 c 0.59,-0.23 1.29,-0.21 1.56,0.06 0.27,0.27 -0.21,0.46 -1.07,0.43 -0.95,-0.04 -1.14,-0.23 -0.49,-0.49 z m 871.4,0 c 0.59,-0.23 1.29,-0.21 1.56,0.06 0.27,0.27 -0.21,0.46 -1.07,0.43 -0.95,-0.04 -1.14,-0.23 -0.49,-0.49 z m 236.49,0.02 c 0.56,-0.23 1.47,-0.23 2.03,0 0.56,0.23 0.1,0.41 -1.02,0.41 -1.12,0 -1.57,-0.18 -1.02,-0.41 z m -1350.94,-0.83 c 0.59,-0.23 1.29,-0.21 1.56,0.06 0.27,0.27 -0.21,0.46 -1.07,0.43 -0.95,-0.04 -1.14,-0.23 -0.49,-0.49 z m 248.69,0.02 c 0.56,-0.23 1.47,-0.23 2.03,0 0.56,0.23 0.1,0.41 -1.02,0.41 -1.12,0 -1.57,-0.18 -1.02,-0.41 z m 859.2,0 c 0.56,-0.23 1.47,-0.23 2.03,0 0.56,0.23 0.1,0.41 -1.02,0.41 -1.12,0 -1.57,-0.18 -1.02,-0.41 z m 249.6,-0.02 c 0.59,-0.23 1.29,-0.21 1.56,0.06 0.27,0.27 -0.21,0.46 -1.07,0.43 -0.95,-0.04 -1.14,-0.23 -0.49,-0.49 z M 296.55,271.76 c 0.59,-0.23 1.29,-0.21 1.56,0.06 0.27,0.27 -0.21,0.46 -1.07,0.43 -0.95,-0.04 -1.14,-0.23 -0.49,-0.49 z m 260.07,0.02 c 0.56,-0.23 1.47,-0.23 2.03,0 0.56,0.23 0.1,0.41 -1.02,0.41 -1.12,0 -1.57,-0.18 -1.02,-0.41 z m 847.82,0 c 0.56,-0.23 1.47,-0.23 2.03,0 0.56,0.23 0.1,0.41 -1.02,0.41 -1.12,0 -1.57,-0.18 -1.02,-0.41 z m 260.98,-0.02 c 0.59,-0.23 1.29,-0.21 1.56,0.06 0.27,0.27 -0.21,0.46 -1.07,0.43 -0.95,-0.04 -1.14,-0.23 -0.49,-0.49 z M 50.46,270.21 c 0.04,-0.95 0.23,-1.14 0.49,-0.49 0.23,0.59 0.21,1.29 -0.06,1.56 -0.27,0.27 -0.46,-0.21 -0.43,-1.07 z m 240.39,0.73 c 0.59,-0.23 1.29,-0.21 1.56,0.06 0.27,0.27 -0.21,0.46 -1.07,0.43 -0.95,-0.04 -1.14,-0.23 -0.49,-0.49 z m 271.5,0 c 0.59,-0.23 1.29,-0.21 1.56,0.06 0.27,0.27 -0.21,0.46 -1.07,0.43 -0.95,-0.04 -1.14,-0.23 -0.49,-0.49 z m 837.26,0 c 0.59,-0.23 1.29,-0.21 1.56,0.06 0.27,0.27 -0.21,0.46 -1.07,0.43 -0.95,-0.04 -1.14,-0.23 -0.49,-0.49 z m 271.5,0 c 0.59,-0.23 1.29,-0.21 1.56,0.06 0.27,0.27 -0.21,0.46 -1.07,0.43 -0.95,-0.04 -1.14,-0.23 -0.49,-0.49 z M 285.98,270.13 c 0.59,-0.23 1.29,-0.21 1.56,0.06 0.27,0.27 -0.21,0.46 -1.07,0.43 -0.95,-0.04 -1.14,-0.23 -0.49,-0.49 z m 282.07,0 c 0.59,-0.23 1.29,-0.21 1.56,0.06 0.27,0.27 -0.21,0.46 -1.07,0.43 -0.95,-0.04 -1.14,-0.23 -0.49,-0.49 z m 825.88,0 c 0.59,-0.23 1.29,-0.21 1.56,0.06 0.27,0.27 -0.21,0.46 -1.07,0.43 -0.95,-0.04 -1.14,-0.23 -0.49,-0.49 z m 282.07,0 c 0.59,-0.23 1.29,-0.21 1.56,0.06 0.27,0.27 -0.21,0.46 -1.07,0.43 -0.95,-0.04 -1.14,-0.23 -0.49,-0.49 z M 281.1,269.32 c 0.59,-0.23 1.29,-0.21 1.56,0.06 0.27,0.27 -0.21,0.46 -1.07,0.43 -0.95,-0.04 -1.14,-0.23 -0.49,-0.49 z m 291.82,0 c 0.59,-0.23 1.29,-0.21 1.56,0.06 0.27,0.27 -0.21,0.46 -1.07,0.43 -0.95,-0.04 -1.14,-0.23 -0.49,-0.49 z m 816.12,0 c 0.59,-0.23 1.29,-0.21 1.56,0.06 0.27,0.27 -0.21,0.46 -1.07,0.43 -0.95,-0.04 -1.14,-0.23 -0.49,-0.49 z m 291.82,0 c 0.59,-0.23 1.29,-0.21 1.56,0.06 0.27,0.27 -0.21,0.46 -1.07,0.43 -0.95,-0.04 -1.14,-0.23 -0.49,-0.49 z M 276.22,268.5 c 0.59,-0.23 1.29,-0.21 1.56,0.06 0.27,0.27 -0.21,0.46 -1.07,0.43 -0.95,-0.04 -1.14,-0.23 -0.49,-0.49 z m 301.57,0 c 0.59,-0.23 1.29,-0.21 1.56,0.06 0.27,0.27 -0.21,0.46 -1.07,0.43 -0.95,-0.04 -1.14,-0.23 -0.49,-0.49 z m 806.37,0 c 0.59,-0.23 1.29,-0.21 1.56,0.06 0.27,0.27 -0.21,0.46 -1.07,0.43 -0.95,-0.04 -1.14,-0.23 -0.49,-0.49 z m 301.57,0 c 0.59,-0.23 1.29,-0.21 1.56,0.06 0.27,0.27 -0.21,0.46 -1.07,0.43 -0.95,-0.04 -1.14,-0.23 -0.49,-0.49 z M 271.35,267.69 c 0.59,-0.23 1.29,-0.21 1.56,0.06 0.27,0.27 -0.21,0.46 -1.07,0.43 -0.95,-0.04 -1.14,-0.23 -0.49,-0.49 z m 1419.27,0 c 0.59,-0.23 1.29,-0.21 1.56,0.06 0.27,0.27 -0.21,0.46 -1.07,0.43 -0.95,-0.04 -1.14,-0.23 -0.49,-0.49 z m 220.5,-0.73 c 0.04,-0.95 0.23,-1.14 0.49,-0.49 0.23,0.59 0.21,1.29 -0.06,1.56 -0.27,0.27 -0.46,-0.21 -0.43,-1.07 z m -1643.84,-0.08 c 0.59,-0.23 1.29,-0.21 1.56,0.06 0.27,0.27 -0.21,0.46 -1.07,0.43 -0.95,-0.04 -1.14,-0.23 -0.49,-0.49 z m 319.46,0 c 0.59,-0.23 1.29,-0.21 1.56,0.06 0.27,0.27 -0.21,0.46 -1.07,0.43 -0.95,-0.04 -1.14,-0.23 -0.49,-0.49 z m 788.48,0 c 0.59,-0.23 1.29,-0.21 1.56,0.06 0.27,0.27 -0.21,0.46 -1.07,0.43 -0.95,-0.04 -1.14,-0.23 -0.49,-0.49 z m 319.46,0 c 0.59,-0.23 1.29,-0.21 1.56,0.06 0.27,0.27 -0.21,0.46 -1.07,0.43 -0.95,-0.04 -1.14,-0.23 -0.49,-0.49 z M 258.34,265.25 c 0.59,-0.23 1.29,-0.21 1.56,0.06 0.27,0.27 -0.21,0.46 -1.07,0.43 -0.95,-0.04 -1.14,-0.23 -0.49,-0.49 z m 337.34,0 c 0.59,-0.23 1.29,-0.21 1.56,0.06 0.27,0.27 -0.21,0.46 -1.07,0.43 -0.95,-0.04 -1.14,-0.23 -0.49,-0.49 z m 770.6,0 c 0.59,-0.23 1.29,-0.21 1.56,0.06 0.27,0.27 -0.21,0.46 -1.07,0.43 -0.95,-0.04 -1.14,-0.23 -0.49,-0.49 z m 337.34,0 c 0.59,-0.23 1.29,-0.21 1.56,0.06 0.27,0.27 -0.21,0.46 -1.07,0.43 -0.95,-0.04 -1.14,-0.23 -0.49,-0.49 z M 254.28,264.44 c 0.59,-0.23 1.29,-0.21 1.56,0.06 0.27,0.27 -0.21,0.46 -1.07,0.43 -0.95,-0.04 -1.14,-0.23 -0.49,-0.49 z m 345.47,0 c 0.59,-0.23 1.29,-0.21 1.56,0.06 0.27,0.27 -0.21,0.46 -1.07,0.43 -0.95,-0.04 -1.14,-0.23 -0.49,-0.49 z m 762.47,0 c 0.59,-0.23 1.29,-0.21 1.56,0.06 0.27,0.27 -0.21,0.46 -1.07,0.43 -0.95,-0.04 -1.14,-0.23 -0.49,-0.49 z m 345.47,0 c 0.59,-0.23 1.29,-0.21 1.56,0.06 0.27,0.27 -0.21,0.46 -1.07,0.43 -0.95,-0.04 -1.14,-0.23 -0.49,-0.49 z M 250.21,263.63 c 0.59,-0.23 1.29,-0.21 1.56,0.06 0.27,0.27 -0.21,0.46 -1.07,0.43 -0.95,-0.04 -1.14,-0.23 -0.49,-0.49 z m 353.6,0 c 0.59,-0.23 1.29,-0.21 1.56,0.06 0.27,0.27 -0.21,0.46 -1.07,0.43 -0.95,-0.04 -1.14,-0.23 -0.49,-0.49 z m 754.34,0 c 0.59,-0.23 1.29,-0.21 1.56,0.06 0.27,0.27 -0.21,0.46 -1.07,0.43 -0.95,-0.04 -1.14,-0.23 -0.49,-0.49 z m 353.6,0 c 0.59,-0.23 1.29,-0.21 1.56,0.06 0.27,0.27 -0.21,0.46 -1.07,0.43 -0.95,-0.04 -1.14,-0.23 -0.49,-0.49 z M 607.87,262.81 c 0.59,-0.23 1.29,-0.21 1.56,0.06 0.27,0.27 -0.21,0.46 -1.07,0.43 -0.95,-0.04 -1.14,-0.23 -0.49,-0.49 z m 746.22,0 c 0.59,-0.23 1.29,-0.21 1.56,0.06 0.27,0.27 -0.21,0.46 -1.07,0.43 -0.95,-0.04 -1.14,-0.23 -0.49,-0.49 z M 238.83,261.19 c 0.59,-0.23 1.29,-0.21 1.56,0.06 0.27,0.27 -0.21,0.46 -1.07,0.43 -0.95,-0.04 -1.14,-0.23 -0.49,-0.49 z m 1484.3,0 c 0.59,-0.23 1.29,-0.21 1.56,0.06 0.27,0.27 -0.21,0.46 -1.07,0.43 -0.95,-0.04 -1.14,-0.23 -0.49,-0.49 z M 918.14,163.39 c 0.81,-0.89 1.65,-1.63 1.88,-1.63 0.22,0 -0.26,0.73 -1.06,1.63 -0.81,0.89 -1.65,1.63 -1.88,1.63 -0.22,0 0.26,-0.73 1.06,-1.63 z m 125.92,-0.2 -1.55,-1.83 1.83,1.55 c 1.72,1.46 2.2,2.11 1.55,2.11 -0.15,0 -0.98,-0.82 -1.83,-1.83 z m 42.65,-17.48 c -1.01,-1.29 -0.98,-1.32 0.31,-0.31 1.35,1.06 1.78,1.73 1.12,1.73 -0.17,0 -0.81,-0.64 -1.42,-1.42 z m -4.06,-3.25 c -1.01,-1.29 -0.98,-1.32 0.31,-0.31 1.35,1.06 1.78,1.73 1.12,1.73 -0.17,0 -0.81,-0.64 -1.42,-1.42 z m -203.11,0.3 c 0,-0.17 0.64,-0.81 1.42,-1.42 1.29,-1.01 1.32,-0.98 0.31,0.31 -1.06,1.35 -1.73,1.78 -1.73,1.12 z m 59.34,0 c 0,-0.17 0.64,-0.81 1.42,-1.42 1.29,-1.01 1.32,-0.98 0.31,0.31 -1.06,1.35 -1.73,1.78 -1.73,1.12 z m 83.62,-1.12 c -1.01,-1.29 -0.98,-1.32 0.31,-0.31 0.78,0.61 1.42,1.25 1.42,1.42 0,0.67 -0.67,0.24 -1.73,-1.12 z m -137.68,-3.45 c 0.81,-0.89 1.65,-1.63 1.88,-1.63 0.22,0 -0.26,0.73 -1.06,1.63 -0.81,0.89 -1.65,1.63 -1.88,1.63 -0.22,0 0.26,-0.73 1.06,-1.63 z m 192.95,0.2 c -1.01,-1.29 -0.98,-1.32 0.31,-0.31 1.35,1.06 1.78,1.73 1.12,1.73 -0.17,0 -0.81,-0.64 -1.42,-1.42 z m -132.39,-2.95 c 0,-0.17 0.64,-0.81 1.42,-1.42 1.29,-1.01 1.32,-0.98 0.31,0.31 -1.06,1.35 -1.73,1.78 -1.73,1.12 z m 70.62,-1.12 c -1.01,-1.29 -0.98,-1.32 0.31,-0.31 1.35,1.06 1.78,1.73 1.12,1.73 -0.17,0 -0.81,-0.64 -1.42,-1.42 z m -125.48,-1.02 c 0.81,-0.89 1.65,-1.63 1.88,-1.63 0.22,0 -0.26,0.73 -1.06,1.63 -0.81,0.89 -1.65,1.63 -1.88,1.63 -0.22,0 0.26,-0.73 1.06,-1.63 z m 181.19,-0.2 -1.55,-1.83 1.83,1.55 c 1.72,1.46 2.2,2.11 1.55,2.11 -0.15,0 -0.98,-0.82 -1.83,-1.83 z m -173.47,-6.71 c 1.52,-1.56 2.94,-2.85 3.16,-2.85 0.22,0 -0.83,1.28 -2.35,2.85 -1.52,1.56 -2.94,2.85 -3.16,2.85 -0.22,0 0.83,-1.28 2.35,-2.85 z m 165.78,-0.2 -2.8,-3.05 3.05,2.8 c 2.84,2.61 3.42,3.3 2.8,3.3 -0.14,0 -1.51,-1.37 -3.05,-3.05 z m -146.27,-19.15 c 0,-0.14 1.19,-1.33 2.64,-2.64 l 2.64,-2.39 -2.39,2.64 c -2.23,2.46 -2.9,3.02 -2.9,2.39 z m 124.72,-2.39 -2.39,-2.64 2.64,2.39 c 2.46,2.23 3.02,2.9 2.39,2.9 -0.14,0 -1.33,-1.19 -2.64,-2.64 z M 926.27,97.54 c 0.81,-0.89 1.65,-1.63 1.88,-1.63 0.22,0 -0.26,0.73 -1.06,1.63 -0.81,0.89 -1.65,1.63 -1.88,1.63 -0.22,0 0.26,-0.73 1.06,-1.63 z m 109.66,-0.2 -1.55,-1.83 1.83,1.55 c 1.72,1.46 2.2,2.11 1.55,2.11 -0.15,0 -0.98,-0.82 -1.83,-1.83 z M 929.92,93.17 c 0,-0.17 0.64,-0.81 1.42,-1.42 1.29,-1.01 1.32,-0.98 0.31,0.31 -1.06,1.35 -1.73,1.78 -1.73,1.12 z m 101.51,-1.12 c -1.01,-1.29 -0.98,-1.32 0.31,-0.31 0.78,0.61 1.42,1.25 1.42,1.42 0,0.67 -0.67,0.24 -1.73,-1.12 z m -97.44,-3.76 c 0,-0.17 0.64,-0.81 1.42,-1.42 1.29,-1.01 1.32,-0.98 0.31,0.31 -1.06,1.35 -1.73,1.78 -1.73,1.12 z m 93.38,-1.12 c -1.01,-1.29 -0.98,-1.32 0.31,-0.31 0.78,0.61 1.42,1.25 1.42,1.42 0,0.67 -0.67,0.24 -1.73,-1.12 z"
           id="path26" />
      </g>
    </g>
  </g>
</g>
</svg>
